<svg xmlns="http://www.w3.org/2000/svg" version="1.0" viewBox="0 0 512 512">
  <path d="M71.8 11.2C61 23.9 53.6 37.5 49.9 51.5c-2.7 10.2-3.7 33.2-1.9 44.3 7 43.7 41.9 82.1 80.8 89.2 5.3.9 6.6.8 9.4-.6 5.4-2.7 15.9-10.7 15.1-11.5-.5-.4-4.1-2.1-8.2-3.9-22.8-9.9-42.9-27.1-57.6-49.5-6.6-10.1-8.5-13.9-12.3-24.5-3.6-10.2-5.9-21.6-6.8-32.6-.6-8.4.8-12.4 2.1-6.2 2.1 10 12.7 33.9 20.2 45.7 8.4 13.2 23.7 31.4 30.6 36.3l3 2.2-.6-3.2c-.6-2.9 1.6-19.8 2.7-20.9.6-.7 34.7 12.7 42.6 16.7 10.5 5.3 12.6 10 9.8 22.2-2.6 11.1-8.3 19.7-22.8 34.5-14.4 14.7-26.9 28.4-36.4 39.7-11.4 13.6-13.9 19.6-5.6 13.3 2.5-1.8 7.2-4.8 10.4-6.7 4.9-2.8 5.8-3 5.1-1.4-3 7.2-7.6 21.8-7.3 23.6.3 1.9.6 1.7 2.9-1.8 6.7-10.1 20.8-20.1 30.9-21.9 3.3-.6 3.4-.5 1.5 1-14.6 11.3-22.5 26.5-24 45.7-.7 8 .7 22.5 2.5 27.1.8 2.1.9 2 2-1.1.7-1.7 1.5-3.2 2-3.2.4 0 1 7.1 1.2 15.7.5 14 .9 17.3 4.1 29.3 1.9 7.4 5 17.5 6.7 22.4 1.7 4.8 2.9 9 2.6 9.3-1.8 1.8-23.9-20.1-34.7-34.5-4.2-5.4-8.8-12-10.5-14.5-1.6-2.6-3.2-4.7-3.6-4.7-1.4 0 3.5 14.9 8.1 24.5 12.9 26.8 35 50.2 66.6 70.7 9.2 6 19.6 11.8 21 11.8.4 0-3.6-4.6-8.7-10.3-11.9-13.1-14.8-16.7-19.1-24.7-4.6-8.3-6.7-16.5-6.7-26 0-7.5 2.4-23.4 3.9-25.9.6-.9 2.2.2 5.9 4.1 2.8 2.9 6.4 6.1 8 7l2.9 1.7-.1-12.7c0-9.5.4-14.2 1.8-18.6 6.5-21.8 22.4-37.4 46.1-45.3 6.8-2.3 9.7-2.7 20-2.7 8.5 0 13.8.5 18.3 1.7 20.2 5.6 36.6 18.7 45.1 36 5.4 10.9 6.5 16.7 5.8 30.5-.4 8.4-.2 11 .6 10.5 3.7-2.1 9.3-7.2 11.8-10.6 2.8-3.9 2.9-3.9 3.8-1.6.5 1.3 1.6 6 2.6 10.3 3.4 15.1.8 30.9-7 43.1-4 6.3-19.4 23.4-26.9 29.9-3.1 2.7-5.5 5.1-5.2 5.3.6.7 17.4-8 26.8-14 35.4-22.4 59.1-50 69.6-81.2 1.1-3.3 2.3-8 2.7-10.5l.7-4.5-6.2 9.4c-5.5 8.5-13.8 19.8-16.5 22.7-.5.6-2.9 3.1-5.1 5.5-8 8.6-17.4 17.3-17.9 16.7-.3-.3 1.1-5.6 3-11.9 6.2-19.6 8.7-32.8 9.2-49.2l.6-14.8 1.9 3.3c1.9 3 2.1 3.1 3.1 1.2.6-1.1 1.1-8.3 1.1-17.9.1-12.4-.3-17.5-1.7-22.4-2.8-10.1-7.5-18.6-14.6-26.3l-6.5-7.1 3.4.8c11.3 2.3 24.6 12.6 31.3 23.9l1.8 3.1-.6-4c-.8-5.5-3.3-13.1-6.1-18.7-1.3-2.6-2.4-5.2-2.4-5.8 0-1.3 11.9 5.1 17.3 9.3 2.1 1.6 4.1 2.7 4.4 2.4.3-.4-.6-2.5-2-4.9-5.8-9.9-18.4-24.6-38.2-44.3-22.5-22.5-25.2-26.3-29.4-39.9-2.8-9.3-2.8-15.9.2-18.7 3.1-2.9 12.1-7.4 25.7-12.6 6.3-2.4 14.6-5.8 18.3-7.5 3.8-1.6 7-2.8 7.1-2.6.7.9 3.6 16.2 3.6 18.8 0 1.7.4 3 .9 3s5.6-4.9 11.3-10.9c17-17.7 29.1-37.7 36.4-60.2 2.1-6.3 4.2-11.9 4.7-12.4 1.8-1.9-.2 19.7-2.7 29.7-4.6 18.2-12.9 33.9-26.2 49.7-14.7 17.6-31.9 30.4-49 36.7l-7.7 2.8 2.9 2.4c1.6 1.3 5.6 4.1 8.8 6.3 6.8 4.5 11.1 5 21.1 2.4 14.1-3.7 28.2-12.2 42.2-25.8 28.9-28 40.3-66 30.8-103.1-3.1-12.6-10.5-27.9-18.4-38.4-5.8-7.6-9.2-10.5-7.6-6.5 3.5 9.3 3.2 28-.7 38.5-4.3 11.5-10.4 20.6-21.3 31.3-11.1 11-17.6 15.4-29.8 19.8-7.6 2.8-9.5 3-24.9 3.5-10.5.3-16.8.1-16.8-.5s5.6-3.6 12.5-6.9c6.9-3.2 12.5-6.2 12.5-6.7 0-.6-6.7-.8-16.5-.5-9.1.2-16.5.3-16.5.1 0-.6 9.7-5.1 17-7.8 6.6-2.5 7.2-3 5-3.6-3.9-1.1-26.7-1-34 .1-8.2 1.3-20.5 5.3-29.5 9.5-3.8 1.9-7.1 3.2-7.3 3-.8-.8 16.9-26.6 22.1-32.2 5.6-6 2-4.5-10.5 4.2-13.7 9.7-27 16.5-36.8 19-5.4 1.4-7.4 1.5-11.7.5-6.9-1.5-21.5-9-33.2-17-13.7-9.5-17.5-11.9-17.9-11.5-.2.2 1.9 3.2 4.6 6.7 6.3 8 20.5 29.8 19.9 30.4-.3.3-4.1-1.3-8.6-3.5-12.1-6.1-23.6-9.2-36.7-9.8-11.7-.6-25.2.4-23.8 1.6.5.5 5.2 2.5 10.4 4.5s10.2 4.1 11 4.6c1 .7-3 1-12.5 1-7.7 0-14.6.4-15.3.8-.8.6 3.1 2.9 11.3 6.9 6.8 3.3 12.2 6.3 11.8 6.7-1.3 1.3-30.8.6-36.6-.9-23-6-48.2-29.6-57.3-53.6-2.4-6.4-2.8-8.9-2.8-18.4-.1-8.2.4-12.5 1.8-16.8 1-3.1 1.7-6 1.4-6.2-.3-.3-2.5 1.8-5 4.7M202.7 98c10 6.2 18.5 15.2 22.9 24.4 3.6 7.5 3.6 10 .1 5.1-9.4-12.9-20.9-25-30.1-31.7-6.4-4.6-1.6-3.2 7.1 2.2m112.8-.7c-12.7 10.2-35.2 35.7-46.8 52.9-2.8 4.3-5.5 7.8-5.8 7.8-1 0 .9-7.8 3.2-13.5 6.3-15.1 23.7-34.1 41-44.8 10.1-6.2 14.9-7.6 8.4-2.4M211.7 190c1.9 2.5 7 8.2 11.1 12.8 8.1 8.9 13.7 16 13.1 16.7-.9.8-14.8-10.6-19.8-16.2-4.9-5.5-10.2-14.7-11.6-20.3l-.6-2.5 2.1 2.5c1.1 1.4 3.7 4.5 5.7 7m93.9-1.9c-2.3 5.7-8.6 14.7-13.8 19.5-7.2 6.8-14.8 12.7-15.5 12-.9-.9 3.4-6.5 13.6-17.7 5.1-5.6 10.9-12.4 12.9-15.2 4-5.5 5.3-4.9 2.8 1.4m-113.2 22.5c8.1 2 21.3 8.6 26.1 12.9 2.1 2 3.5 3.8 3.2 4.1s-5.3-1.1-11.2-3.1c-8.5-2.9-12.9-3.8-20.5-4.2-12.2-.7-33.9 1.5-43.2 4.3-6.5 2 6.8-8.1 15.8-12s19.7-4.6 29.8-2m153.1-.1c5.8 1.5 22.5 11 22.5 12.8 0 .5-.7.6-1.6.3-5-1.9-27-3.8-39.9-3.4-12.9.5-14.8.8-24.9 4.2-5.9 2.1-11 3.5-11.2 3.3-.3-.2 1.7-2.3 4.4-4.6 4.5-3.7 12.2-8 19.7-11 8.3-3.2 22-3.9 31-1.6m-142.2 17.6c2.1.5 5.3 2.4 7.2 4.1 3 2.6 3.5 3.6 3.5 7.4 0 5.8-2 10.4-5.9 13.7-10.8 9-26.1-.2-26.1-15.9 0-3.7 3-6.8 8.5-8.8 4.9-1.8 7.9-1.9 12.8-.5m122.1 2.6c3.4 2.4 4.2 3.5 4.4 6.6.4 4.5-2.2 11.8-5.2 14.6-3.6 3.4-9.5 5.3-14.2 4.6-7.3-1.1-14.8-11.9-13-18.8.8-3.4 6-8.5 9.9-9.7 5.5-1.6 13.6-.4 18.1 2.7m-145 27.2c.3.4-1.9 1.3-4.9 1.9-12.7 2.6-24.3 12.2-32.8 27.2-3.4 5.9-4.7 7.6-4.4 5.5 2.5-14.2 15.3-30 27.7-33.9 5.1-1.6 13.6-2.1 14.4-.7m168.6 2.3c10.3 4.8 21.1 18.2 24.1 30.1 1.5 6 .5 7.2-1.6 2.1-2.9-7.1-10.4-18-15.5-22.8-5.7-5.4-13.3-9.1-20.2-10.1-2.8-.4-4.5-1.1-4.2-1.7 1.1-1.8 11.6-.3 17.4 2.4"/><path d="M460.5 151c-2.6 3.9-7.7 10.2-11.2 14-7.1 7.7-6.9 9.4.3 2.8 4.8-4.4 11.9-13.8 14.8-19.6 3-5.9 1-4.5-3.9 2.8M247.2 293c-7.8 1.1-12 2.4-19.7 6.3-11.5 5.7-21.1 15.1-26.3 25.6-3.6 7.4-3.7 7.7-3.7 19.5 0 12 0 12.2 3.8 19.6 5.9 11.9 15.4 20.9 29.4 28.3 16.7 8.7 33.8 8.6 51.9-.2 23.3-11.5 37.1-35.4 32.3-56-3.3-14.6-16.2-29.9-31-36.9-12.8-6-24.1-7.9-36.7-6.2m23.1 18.5c26.9 7 38.3 31.7 19 41.2-4.6 2.2-6.3 2.5-11.8 2.1-7.8-.7-12.8-3.9-17.8-11.6l-3.4-5.3-3.4 5.3c-1.9 2.9-5.4 6.6-7.8 8.2-3.8 2.5-5.5 3-11.1 3-5.6.1-7.3-.3-10.9-2.7-7.1-4.7-10.2-12-8.1-19.5 2.2-8.5 13.9-17.5 26.6-20.6 7.9-1.9 21.6-2 28.7-.1m-11.8 60 .7 16.5h-2.5c-1.4 0-2.7-.6-2.9-1.3-.7-1.8 1-36.4 1.8-40.1.7-2.8.9-2.6 1.5 2.6.3 3.2 1 13.2 1.4 22.3"/><path d="M177.1 368.8c2 9.1 5.8 15.1 15.6 24.7 12.4 12.2 29.2 22 45.8 26.6 19.9 5.6 44.2.4 65.6-14.2 8.8-5.9 21.8-18.7 25.6-25.1 3.3-5.5 6.2-14.2 5.1-15.4-.4-.3-2.6.7-5 2.4-2.4 1.6-6.4 4.1-9 5.6-2.6 1.4-6.4 4.7-8.5 7.3-9.1 11.2-25.8 21.5-40.7 25.3-24.7 6.2-52.5-3.3-70.9-24.3-3.7-4.3-8.3-8-13.9-11.3-10.8-6.4-10.8-6.4-9.7-1.6"/>
</svg>