<svg xmlns="http://www.w3.org/2000/svg" id="logo-text" viewBox="602.356 351.219 638.792 174.361">
  <path d="M 618.03,355.87 C 616.94 357.84, 617.87 359.93, 618.24 365.30 C 618.61 370.66, 619.12 374.40, 619.88 382.70 C 620.64 390.99, 621.26 396.73, 622.04 406.79 C 622.82 416.85, 623.14 422.71, 623.77 433.00 C 624.40 443.29, 624.64 448.77, 625.19 458.24 C 625.73 467.71, 625.96 472.33, 626.49 480.36 C 627.03 488.38, 627.35 492.07, 627.87 498.37 C 628.39 504.68, 628.28 507.42, 629.08 511.88 C 629.88 516.34, 630.27 518.52, 631.86 520.66 C 633.44 522.79, 635.57 522.63, 637.03 522.53 C 638.48 522.43, 638.79 521.22, 639.15 520.14 C 639.51 519.06, 639.31 519.13, 638.83 517.15 C 638.35 515.16, 637.77 514.12, 636.74 510.21 C 635.72 506.30, 634.79 503.67, 633.71 497.62 C 632.63 491.56, 632.17 487.87, 631.35 479.94 C 630.53 472.01, 630.22 467.40, 629.59 457.97 C 628.96 448.53, 628.71 443.06, 628.20 432.76 C 627.68 422.46, 627.50 416.57, 627.01 406.48 C 626.52 396.38, 626.15 390.62, 625.75 382.28 C 625.34 373.95, 625.38 370.18, 624.97 364.81 C 624.56 359.44, 625.09 357.21, 623.70 355.42 C 622.31 353.63, 619.13 353.89, 618.03 355.87" fill="currentColor" />
  <path d="M 671.59,437.40 C 671.18 435.24, 670.16 433.49, 667.51 432.27 C 664.85 431.04, 662.49 430.92, 658.32 431.29 C 654.14 431.66, 651.40 432.36, 646.63 434.12 C 641.85 435.88, 639.28 437.34, 634.43 440.07 C 629.59 442.81, 626.87 444.49, 622.41 447.79 C 617.95 451.09, 615.44 452.80, 612.14 456.57 C 608.85 460.35, 606.92 462.42, 605.94 466.66 C 604.95 470.90, 605.12 474.05, 607.22 477.78 C 609.31 481.51, 611.74 482.92, 616.43 485.32 C 621.11 487.72, 624.18 488.41, 630.65 489.78 C 637.11 491.15, 641.03 491.55, 648.77 492.19 C 656.50 492.84, 660.96 492.94, 669.32 493.00 C 677.69 493.07, 682.37 492.97, 690.61 492.51 C 698.86 492.06, 703.20 491.63, 710.55 490.74 C 717.90 489.85, 721.35 489.29, 727.36 488.06 C 733.37 486.83, 735.99 486.20, 740.60 484.59 C 745.21 482.97, 747.18 482.19, 750.42 479.97 C 753.65 477.75, 754.90 476.26, 756.77 473.47 C 758.64 470.68, 759.01 468.90, 759.78 466.03 C 760.54 463.16, 760.68 461.77, 760.62 459.12 C 760.55 456.47, 760.40 455.09, 759.45 452.80 C 758.49 450.51, 757.71 449.35, 755.82 447.66 C 753.94 445.97, 752.63 445.14, 750.01 444.35 C 747.38 443.56, 745.68 443.18, 742.71 443.72 C 739.74 444.26, 737.74 444.80, 735.15 447.03 C 732.57 449.25, 731.65 451.33, 729.79 454.85 C 727.92 458.37, 727.04 460.54, 725.84 464.65 C 724.64 468.75, 723.99 471.10, 723.80 475.37 C 723.61 479.64, 723.65 482.05, 724.89 486.00 C 726.13 489.94, 727.24 492.15, 729.99 495.10 C 732.74 498.04, 734.90 499.35, 738.63 500.73 C 742.36 502.10, 744.68 502.26, 748.65 501.97 C 752.61 501.68, 754.74 501.01, 758.46 499.28 C 762.19 497.55, 764.14 496.22, 767.26 493.31 C 770.38 490.40, 771.75 488.47, 774.05 484.73 C 776.36 480.99, 777.19 478.68, 778.79 474.61 C 780.38 470.55, 781.88 468.03, 782.02 464.39 C 782.17 460.76, 781.36 458.14, 779.50 456.45 C 777.64 454.76, 774.80 454.73, 772.71 455.93 C 770.62 457.14, 768.88 459.44, 769.06 462.47 C 769.25 465.51, 771.04 467.49, 773.65 471.11 C 776.26 474.73, 778.41 477.08, 782.11 480.57 C 785.81 484.05, 787.95 485.88, 792.17 488.52 C 796.39 491.16, 798.73 492.20, 803.23 493.77 C 807.72 495.33, 810.09 495.92, 814.64 496.35 C 819.20 496.79, 821.64 496.84, 826.01 495.96 C 830.37 495.07, 832.69 494.29, 836.45 491.94 C 840.21 489.58, 841.97 487.92, 844.81 484.17 C 847.64 480.41, 848.77 478.12, 850.62 473.17 C 852.46 468.22, 853.06 465.31, 854.03 459.41 C 855.01 453.52, 855.25 450.16, 855.49 443.71 C 855.73 437.25, 855.62 433.70, 855.24 427.16 C 854.85 420.62, 854.45 417.11, 853.58 411.00 C 852.71 404.89, 852.02 401.84, 850.88 396.61 C 849.74 391.37, 849.20 388.90, 847.87 384.82 C 846.54 380.74, 846.45 378.42, 844.21 376.20 C 841.98 373.98, 839.69 373.42, 836.68 373.73 C 833.68 374.03, 830.85 374.96, 829.19 377.70 C 827.53 380.45, 827.98 382.75, 828.38 387.43 C 828.78 392.12, 829.74 395.11, 831.17 401.15 C 832.60 407.18, 833.52 410.94, 835.53 417.59 C 837.54 424.24, 838.75 428.02, 841.21 434.40 C 843.67 440.78, 845.07 444.00, 847.81 449.49 C 850.55 454.98, 852.02 457.51, 854.91 461.86 C 857.81 466.21, 859.21 468.09, 862.30 471.22 C 865.39 474.36, 866.87 475.89, 870.36 477.53 C 873.85 479.17, 876.06 479.53, 879.75 479.42 C 883.44 479.30, 885.50 478.52, 888.81 476.97 C 892.13 475.42, 893.47 473.87, 896.32 471.68 C 899.18 469.49, 900.47 468.02, 903.09 466.02 C 905.72 464.01, 907.05 462.97, 909.45 461.64 C 911.84 460.32, 912.92 459.86, 915.09 459.38 C 917.25 458.90, 918.13 458.92, 920.26 459.25 C 922.38 459.58, 923.52 459.98, 925.71 461.04 C 927.90 462.11, 929.18 462.92, 931.20 464.56 C 933.21 466.21, 934.26 467.48, 935.77 469.28 C 937.28 471.07, 937.86 472.16, 938.74 473.55 C 939.62 474.94, 940.20 475.29, 940.19 476.22 C 940.17 477.15, 939.88 476.92, 938.67 478.19 C 937.46 479.47, 936.99 480.80, 934.14 482.57 C 931.29 484.34, 929.10 485.48, 924.42 487.04 C 919.74 488.61, 916.58 489.34, 910.74 490.39 C 904.91 491.44, 901.33 491.87, 895.23 492.27 C 889.12 492.67, 885.63 492.65, 880.22 492.38 C 874.82 492.12, 872.03 491.72, 868.20 490.95 C 864.37 490.18, 863.18 488.93, 861.09 488.54 C 858.99 488.14, 858.57 488.49, 857.73 488.96 C 856.88 489.43, 856.99 490.37, 856.84 490.90 C 856.70 491.43, 857.38 492.07, 856.99 491.59 C 856.59 491.11, 855.66 488.70, 854.87 488.49 C 854.08 488.27, 853.27 489.20, 853.05 490.52 C 852.82 491.84, 852.73 493.39, 853.74 495.07 C 854.74 496.75, 855.41 497.96, 858.08 498.94 C 860.76 499.92, 862.71 499.74, 867.11 499.97 C 871.52 500.19, 874.38 500.14, 880.10 500.06 C 885.82 499.98, 889.33 499.96, 895.69 499.56 C 902.05 499.16, 905.68 498.82, 911.90 498.05 C 918.11 497.29, 921.33 496.88, 926.75 495.74 C 932.17 494.60, 934.69 494.11, 938.99 492.34 C 943.28 490.56, 945.67 489.78, 948.25 486.86 C 950.83 483.94, 951.30 481.42, 951.88 477.74 C 952.47 474.06, 952.26 471.90, 951.16 468.45 C 950.06 465.00, 948.74 463.37, 946.38 460.50 C 944.01 457.62, 942.40 456.33, 939.35 454.05 C 936.30 451.78, 934.64 450.63, 931.15 449.11 C 927.65 447.58, 925.65 446.84, 921.88 446.42 C 918.11 446.01, 915.97 446.19, 912.30 447.03 C 908.62 447.87, 906.86 448.86, 903.51 450.62 C 900.17 452.38, 898.59 453.69, 895.58 455.84 C 892.58 457.99, 891.07 459.43, 888.49 461.36 C 885.92 463.30, 884.69 464.24, 882.72 465.51 C 880.74 466.77, 880.28 467.29, 878.63 467.68 C 876.99 468.08, 876.56 468.13, 874.51 467.49 C 872.45 466.84, 871.05 466.47, 868.37 464.44 C 865.69 462.42, 864.01 460.97, 861.11 457.35 C 858.21 453.73, 856.61 451.40, 853.87 446.34 C 851.13 441.28, 849.69 438.17, 847.40 432.05 C 845.11 425.92, 843.95 422.20, 842.41 415.73 C 840.88 409.26, 840.31 405.46, 839.74 399.69 C 839.16 393.92, 839.56 390.79, 839.54 386.90 C 839.53 383.00, 840.28 381.74, 839.65 380.21 C 839.01 378.68, 837.23 378.81, 836.37 379.23 C 835.51 379.66, 834.81 380.50, 835.36 382.32 C 835.91 384.14, 837.52 385.07, 839.13 388.33 C 840.74 391.58, 841.90 393.84, 843.41 398.59 C 844.92 403.34, 845.68 406.30, 846.68 412.09 C 847.69 417.88, 848.09 421.29, 848.43 427.54 C 848.77 433.79, 848.79 437.25, 848.38 443.34 C 847.97 449.42, 847.54 452.64, 846.38 457.96 C 845.22 463.27, 844.39 465.85, 842.58 469.91 C 840.77 473.97, 839.61 475.55, 837.34 478.24 C 835.06 480.93, 833.88 481.78, 831.21 483.34 C 828.54 484.91, 827.12 485.42, 823.97 486.08 C 820.82 486.74, 818.99 486.90, 815.45 486.67 C 811.91 486.43, 809.88 486.13, 806.29 484.90 C 802.69 483.67, 800.72 482.85, 797.48 480.53 C 794.23 478.21, 792.52 476.55, 790.06 473.30 C 787.60 470.04, 786.67 467.51, 785.19 464.25 C 783.71 460.98, 784.47 458.91, 782.65 456.97 C 780.82 455.04, 778.61 454.51, 776.06 454.57 C 773.50 454.63, 771.44 455.56, 769.87 457.28 C 768.30 458.99, 768.64 460.41, 768.21 463.15 C 767.79 465.89, 768.50 467.86, 767.73 470.98 C 766.96 474.11, 766.05 476.06, 764.38 478.76 C 762.72 481.46, 761.58 482.68, 759.40 484.48 C 757.23 486.28, 755.80 486.89, 753.48 487.77 C 751.16 488.65, 749.90 488.79, 747.81 488.89 C 745.71 488.99, 744.73 488.82, 743.00 488.27 C 741.28 487.73, 740.45 487.38, 739.18 486.18 C 737.91 484.99, 737.29 484.30, 736.66 482.30 C 736.03 480.30, 735.77 478.85, 736.04 476.19 C 736.31 473.53, 736.79 471.68, 738.02 469.01 C 739.25 466.33, 740.51 464.81, 742.19 462.80 C 743.88 460.80, 745.28 460.27, 746.43 458.98 C 747.57 457.69, 747.65 457.15, 747.91 456.36 C 748.16 455.57, 747.93 455.30, 747.71 455.03 C 747.49 454.75, 747.05 454.66, 746.82 455.00 C 746.58 455.34, 746.51 455.75, 746.54 456.72 C 746.57 457.69, 746.82 458.45, 746.98 459.87 C 747.14 461.28, 747.36 462.16, 747.32 463.78 C 747.28 465.40, 747.38 466.24, 746.77 467.97 C 746.16 469.70, 746.11 470.52, 744.27 472.42 C 742.44 474.32, 741.27 475.59, 737.59 477.48 C 733.92 479.37, 731.44 480.33, 725.88 481.87 C 720.32 483.41, 716.91 484.11, 709.80 485.18 C 702.68 486.24, 698.39 486.72, 690.31 487.18 C 682.24 487.65, 677.60 487.73, 669.42 487.50 C 661.25 487.27, 656.83 487.02, 649.43 486.03 C 642.04 485.05, 638.22 484.27, 632.45 482.58 C 626.68 480.89, 623.96 479.53, 620.58 477.60 C 617.20 475.67, 616.61 474.62, 615.55 472.93 C 614.50 471.24, 614.60 471.24, 615.30 469.16 C 616.00 467.09, 616.60 465.43, 619.06 462.55 C 621.51 459.66, 623.66 457.66, 627.58 454.75 C 631.49 451.85, 634.22 450.14, 638.62 448.01 C 643.01 445.88, 645.54 444.91, 649.54 444.10 C 653.54 443.30, 655.59 443.80, 658.64 443.98 C 661.68 444.17, 662.58 445.23, 664.76 445.05 C 666.95 444.86, 668.21 444.60, 669.57 443.07 C 670.94 441.54, 672.00 439.56, 671.59 437.40" fill="currentColor" />
  <path d="M 1021.92,447.01 C 1022.13 444.76, 1021.48 442.88, 1019.37 440.91 C 1017.26 438.93, 1015.24 437.94, 1011.37 437.13 C 1007.51 436.32, 1004.65 436.10, 1000.05 436.85 C 995.44 437.60, 992.91 438.62, 988.34 440.87 C 983.77 443.11, 981.27 444.70, 977.20 448.07 C 973.12 451.45, 970.86 453.53, 967.96 457.74 C 965.06 461.95, 963.64 464.54, 962.69 469.14 C 961.74 473.74, 961.74 476.62, 963.22 480.74 C 964.70 484.86, 966.55 487.04, 970.09 489.74 C 973.64 492.43, 976.27 493.31, 980.94 494.21 C 985.62 495.11, 988.50 495.01, 993.46 494.23 C 998.41 493.44, 1001.03 492.41, 1005.73 490.29 C 1010.43 488.17, 1012.81 486.73, 1016.96 483.63 C 1021.10 480.52, 1023.21 478.61, 1026.45 474.77 C 1029.70 470.93, 1031.21 468.37, 1033.16 464.45 C 1035.12 460.53, 1036.56 457.92, 1036.24 455.18 C 1035.92 452.44, 1033.54 450.92, 1031.58 450.73 C 1029.61 450.54, 1027.21 451.90, 1026.40 454.23 C 1025.59 456.57, 1026.06 458.81, 1027.53 462.41 C 1029.01 466.01, 1030.93 468.48, 1033.78 472.21 C 1036.63 475.95, 1038.54 477.93, 1041.79 481.08 C 1045.04 484.22, 1046.71 485.56, 1050.03 487.93 C 1053.35 490.30, 1054.96 491.50, 1058.39 492.93 C 1061.82 494.36, 1063.70 494.99, 1067.19 495.07 C 1070.68 495.16, 1072.59 494.68, 1075.86 493.36 C 1079.12 492.04, 1081.01 491.06, 1083.50 488.46 C 1085.98 485.86, 1086.67 483.81, 1088.27 480.37 C 1089.87 476.93, 1090.24 474.73, 1091.51 471.26 C 1092.77 467.80, 1093.66 465.80, 1094.59 463.04 C 1095.53 460.29, 1096.02 458.98, 1096.19 457.49 C 1096.37 456.00, 1095.63 455.49, 1095.49 455.59 C 1095.35 455.70, 1094.74 456.62, 1095.48 458.03 C 1096.23 459.44, 1097.15 460.45, 1099.23 462.64 C 1101.31 464.83, 1103.08 466.25, 1105.91 468.97 C 1108.73 471.69, 1110.34 473.43, 1113.36 476.24 C 1116.39 479.04, 1117.88 480.59, 1121.02 482.99 C 1124.16 485.40, 1125.70 486.63, 1129.07 488.26 C 1132.44 489.89, 1134.26 490.65, 1137.87 491.14 C 1141.47 491.64, 1143.54 491.54, 1147.11 490.75 C 1150.69 489.96, 1152.42 488.98, 1155.75 487.19 C 1159.08 485.39, 1160.62 484.06, 1163.75 481.78 C 1166.89 479.50, 1168.40 478.03, 1171.41 475.78 C 1174.42 473.52, 1176.01 472.18, 1178.78 470.49 C 1181.55 468.81, 1183.07 468.21, 1185.26 467.34 C 1187.46 466.48, 1188.13 466.15, 1189.76 466.18 C 1191.40 466.21, 1191.75 466.59, 1193.43 467.48 C 1195.12 468.37, 1196.03 469.00, 1198.20 470.62 C 1200.37 472.24, 1201.69 473.33, 1204.28 475.57 C 1206.87 477.82, 1208.36 479.25, 1211.15 481.87 C 1213.94 484.48, 1215.65 486.01, 1218.22 488.65 C 1220.78 491.30, 1221.77 493.21, 1223.98 495.08 C 1226.19 496.94, 1227.37 497.25, 1229.26 497.98 C 1231.14 498.70, 1232.04 498.74, 1233.39 498.69 C 1234.74 498.65, 1235.12 498.45, 1236.01 497.77 C 1236.89 497.08, 1237.41 496.30, 1237.80 495.26 C 1238.20 494.23, 1238.24 493.84, 1238.00 492.59 C 1237.75 491.34, 1237.52 490.60, 1236.57 489.02 C 1235.61 487.43, 1235.25 486.54, 1233.24 484.66 C 1231.23 482.77, 1229.32 481.87, 1226.51 479.59 C 1223.71 477.32, 1221.98 475.89, 1219.23 473.29 C 1216.48 470.69, 1215.34 469.22, 1212.76 466.59 C 1210.18 463.96, 1209.16 462.40, 1206.33 460.14 C 1203.50 457.88, 1201.97 456.55, 1198.63 455.30 C 1195.30 454.04, 1193.23 453.80, 1189.65 453.87 C 1186.07 453.94, 1184.18 454.33, 1180.73 455.66 C 1177.28 456.99, 1175.66 458.35, 1172.41 460.51 C 1169.16 462.67, 1167.57 464.17, 1164.47 466.46 C 1161.38 468.74, 1159.83 470.04, 1156.93 471.94 C 1154.03 473.84, 1152.50 474.75, 1149.97 475.97 C 1147.44 477.20, 1146.38 477.58, 1144.26 478.07 C 1142.14 478.56, 1141.40 478.60, 1139.36 478.43 C 1137.32 478.26, 1136.34 478.16, 1134.05 477.24 C 1131.76 476.31, 1130.43 475.64, 1127.90 473.80 C 1125.37 471.96, 1123.94 470.67, 1121.40 468.03 C 1118.86 465.38, 1117.57 463.62, 1115.21 460.58 C 1112.85 457.54, 1112.07 455.50, 1109.58 452.85 C 1107.09 450.20, 1105.87 448.56, 1102.75 447.34 C 1099.63 446.12, 1097.30 446.11, 1093.99 446.75 C 1090.69 447.40, 1088.66 448.29, 1086.23 450.55 C 1083.80 452.81, 1083.25 454.79, 1081.83 458.05 C 1080.42 461.31, 1080.31 463.53, 1079.15 466.84 C 1077.99 470.14, 1077.27 472.04, 1076.04 474.58 C 1074.81 477.11, 1074.04 478.01, 1073.01 479.53 C 1071.99 481.05, 1071.96 481.59, 1070.90 482.18 C 1069.84 482.78, 1069.37 482.63, 1067.73 482.49 C 1066.09 482.36, 1065.02 482.25, 1062.71 481.51 C 1060.39 480.76, 1058.77 480.39, 1056.15 478.79 C 1053.54 477.18, 1052.00 476.17, 1049.62 473.49 C 1047.24 470.82, 1046.03 468.83, 1044.25 465.42 C 1042.47 462.01, 1042.21 459.44, 1040.71 456.45 C 1039.21 453.46, 1038.91 451.89, 1036.73 450.47 C 1034.55 449.05, 1032.29 448.88, 1029.82 449.34 C 1027.34 449.80, 1025.66 450.57, 1024.34 452.76 C 1023.02 454.95, 1024.24 457.04, 1023.21 460.29 C 1022.17 463.54, 1021.47 465.79, 1019.15 469.02 C 1016.83 472.26, 1015.00 473.91, 1011.59 476.48 C 1008.17 479.05, 1005.97 480.26, 1002.08 481.87 C 998.18 483.48, 995.94 484.10, 992.12 484.53 C 988.30 484.95, 986.15 484.67, 983.00 483.99 C 979.85 483.32, 978.39 482.53, 976.38 481.16 C 974.37 479.78, 973.75 479.13, 972.95 477.12 C 972.14 475.11, 971.79 473.91, 972.36 471.11 C 972.92 468.31, 973.61 466.25, 975.77 463.10 C 977.92 459.96, 979.79 458.01, 983.12 455.39 C 986.45 452.78, 988.84 451.42, 992.42 450.04 C 995.99 448.66, 997.92 448.38, 1000.99 448.51 C 1004.07 448.63, 1005.39 449.80, 1007.78 450.65 C 1010.18 451.50, 1010.87 452.46, 1012.98 452.76 C 1015.09 453.06, 1016.57 453.31, 1018.35 452.16 C 1020.14 451.01, 1021.72 449.26, 1021.92 447.01" fill="currentColor" />
</svg>