<svg xmlns="http://www.w3.org/2000/svg" id="canvas" viewBox="288.636 385.640 1371.432 173.447"><path d="M 294.89,453.75 C 296.19 453.80, 296.98 453.08, 298.46 452.10 C 299.94 451.12, 300.69 450.29, 302.28 448.85 C 303.86 447.42, 304.71 446.32, 306.40 444.91 C 308.08 443.49, 309.01 442.76, 310.69 441.78 C 312.37 440.81, 313.37 440.39, 314.79 440.03 C 316.21 439.68, 316.84 439.60, 317.80 440.01 C 318.76 440.41, 319.11 440.69, 319.59 442.07 C 320.08 443.46, 320.22 444.33, 320.23 446.92 C 320.24 449.51, 320.36 451.31, 319.63 455.01 C 318.90 458.71, 318.12 461.17, 316.59 465.42 C 315.05 469.68, 313.85 472.28, 311.95 476.29 C 310.05 480.30, 308.40 482.26, 307.10 485.47 C 305.81 488.67, 305.18 490.26, 305.46 492.30 C 305.74 494.35, 306.72 495.39, 308.50 495.68 C 310.28 495.97, 311.95 495.77, 314.37 493.76 C 316.79 491.75, 317.65 489.34, 320.59 485.64 C 323.54 481.93, 325.39 479.41, 329.08 475.25 C 332.77 471.10, 335.06 468.68, 339.05 464.85 C 343.03 461.02, 345.30 458.98, 349.00 456.10 C 352.70 453.22, 354.81 452.15, 357.55 450.45 C 360.30 448.75, 361.45 448.27, 362.74 447.59 C 364.03 446.91, 364.04 446.65, 364.00 447.05 C 363.95 447.45, 363.23 447.89, 362.52 449.61 C 361.80 451.32, 361.42 452.72, 360.42 455.63 C 359.41 458.54, 358.87 460.73, 357.49 464.17 C 356.10 467.61, 354.94 469.64, 353.49 472.83 C 352.04 476.03, 350.71 477.54, 350.24 480.13 C 349.77 482.73, 350.08 484.22, 351.16 485.81 C 352.24 487.41, 353.46 488.19, 355.62 488.10 C 357.79 488.02, 359.30 487.43, 361.99 485.41 C 364.69 483.38, 365.89 481.23, 369.11 477.99 C 372.33 474.76, 374.32 472.63, 378.09 469.24 C 381.87 465.85, 384.16 463.89, 387.98 461.04 C 391.81 458.19, 394.00 456.85, 397.21 454.99 C 400.43 453.13, 402.24 452.72, 404.07 451.74 C 405.90 450.75, 406.16 450.12, 406.36 450.07 C 406.56 450.02, 405.90 450.19, 405.06 451.50 C 404.22 452.80, 403.35 453.91, 402.16 456.60 C 400.97 459.28, 400.42 461.47, 399.13 464.93 C 397.83 468.39, 396.78 470.44, 395.70 473.91 C 394.63 477.37, 393.67 479.21, 393.74 482.26 C 393.80 485.31, 394.38 487.02, 396.04 489.16 C 397.71 491.31, 399.14 492.45, 402.06 492.98 C 404.97 493.52, 406.86 493.04, 410.63 491.83 C 414.40 490.62, 416.47 489.29, 420.92 486.92 C 425.36 484.55, 427.91 482.98, 432.86 479.98 C 437.80 476.99, 440.58 475.14, 445.63 471.95 C 450.69 468.75, 453.42 466.94, 458.14 463.99 C 462.85 461.05, 465.26 459.52, 469.21 457.23 C 473.15 454.93, 475.18 454.19, 477.87 452.52 C 480.56 450.84, 481.57 450.20, 482.66 448.85 C 483.75 447.50, 483.75 446.81, 483.32 445.77 C 482.88 444.73, 481.98 443.97, 480.49 443.64 C 479.01 443.32, 477.87 443.35, 475.88 444.14 C 473.89 444.92, 472.78 445.64, 470.55 447.57 C 468.31 449.51, 467.22 451.13, 464.72 453.81 C 462.21 456.48, 460.69 457.97, 458.03 460.93 C 455.37 463.88, 453.86 465.56, 451.41 468.57 C 448.97 471.59, 447.49 473.11, 445.80 476.01 C 444.12 478.90, 443.37 480.43, 442.97 483.04 C 442.56 485.65, 442.78 487.07, 443.79 489.04 C 444.81 491.01, 445.86 492.04, 448.04 492.89 C 450.21 493.75, 451.91 494.04, 454.67 493.32 C 457.43 492.60, 458.91 491.45, 461.85 489.30 C 464.78 487.15, 466.23 485.52, 469.33 482.56 C 472.43 479.61, 474.16 477.83, 477.35 474.52 C 480.54 471.20, 482.29 469.26, 485.30 466.00 C 488.30 462.75, 490.43 461.02, 492.38 458.24 C 494.33 455.45, 495.01 453.87, 495.04 452.06 C 495.08 450.25, 494.13 449.41, 492.55 449.20 C 490.97 448.98, 489.19 449.29, 487.14 450.98 C 485.09 452.67, 483.93 454.62, 482.30 457.64 C 480.68 460.67, 479.87 462.83, 479.01 466.10 C 478.14 469.37, 477.71 471.15, 477.96 473.99 C 478.21 476.83, 478.66 478.31, 480.23 480.31 C 481.81 482.31, 483.14 483.35, 485.83 483.98 C 488.52 484.60, 490.37 484.49, 493.68 483.43 C 496.98 482.37, 498.66 480.95, 502.36 478.66 C 506.06 476.38, 508.15 474.86, 512.19 472.01 C 516.23 469.16, 518.54 467.32, 522.57 464.40 C 526.61 461.47, 528.85 459.76, 532.38 457.39 C 535.91 455.02, 538.20 454.26, 540.23 452.57 C 542.26 450.88, 542.50 449.66, 542.52 448.92 C 542.54 448.18, 541.64 448.10, 540.33 448.88 C 539.01 449.66, 537.69 450.53, 535.96 452.81 C 534.22 455.09, 533.45 457.26, 531.67 460.29 C 529.88 463.32, 528.44 465.07, 527.05 467.96 C 525.66 470.85, 524.85 472.40, 524.73 474.76 C 524.61 477.13, 525.06 478.43, 526.46 479.78 C 527.86 481.13, 529.27 481.84, 531.72 481.49 C 534.17 481.14, 535.61 480.08, 538.70 478.02 C 541.79 475.97, 543.46 474.04, 547.16 471.20 C 550.86 468.37, 553.16 466.56, 557.20 463.83 C 561.24 461.11, 563.63 459.57, 567.34 457.57 C 571.05 455.58, 573.31 455.06, 575.77 453.86 C 578.23 452.66, 578.95 452.01, 579.64 451.58 C 580.32 451.14, 579.91 451.03, 579.19 451.68 C 578.47 452.33, 577.34 452.98, 576.03 454.82 C 574.72 456.66, 573.82 458.19, 572.62 460.89 C 571.43 463.59, 570.61 465.36, 570.08 468.31 C 569.54 471.26, 569.31 473.05, 569.94 475.65 C 570.57 478.25, 571.26 479.66, 573.24 481.30 C 575.21 482.94, 576.77 483.84, 579.82 483.86 C 582.86 483.88, 584.62 482.94, 588.47 481.40 C 592.31 479.87, 594.48 478.58, 599.03 476.18 C 603.58 473.78, 606.26 472.23, 611.22 469.41 C 616.18 466.59, 618.96 464.89, 623.83 462.07 C 628.70 459.26, 631.30 457.68, 635.57 455.34 C 639.84 453.00, 642.07 452.06, 645.19 450.37 C 648.31 448.69, 649.72 448.24, 651.17 446.90 C 652.63 445.57, 652.74 444.78, 652.47 443.71 C 652.21 442.65, 651.39 441.94, 649.85 441.59 C 648.31 441.24, 646.95 441.11, 644.76 441.96 C 642.58 442.80, 641.25 443.84, 638.92 445.82 C 636.58 447.79, 635.44 449.37, 633.08 451.83 C 630.72 454.28, 629.26 455.58, 627.12 458.09 C 624.99 460.61, 623.75 461.90, 622.40 464.40 C 621.06 466.91, 620.54 468.30, 620.40 470.64 C 620.25 472.97, 620.51 474.32, 621.66 476.09 C 622.81 477.86, 623.95 478.77, 626.15 479.50 C 628.36 480.23, 629.94 480.40, 632.69 479.74 C 635.45 479.07, 636.97 478.04, 639.93 476.17 C 642.88 474.30, 644.42 472.84, 647.49 470.38 C 650.56 467.93, 652.26 466.44, 655.29 463.89 C 658.33 461.33, 660.48 459.99, 662.67 457.63 C 664.86 455.26, 665.79 453.82, 666.23 452.08 C 666.67 450.33, 666.04 449.38, 664.86 448.90 C 663.69 448.42, 662.24 448.59, 660.35 449.69 C 658.47 450.79, 656.84 451.98, 655.42 454.40 C 653.99 456.82, 653.50 458.90, 653.24 461.80 C 652.97 464.69, 653.13 466.42, 654.10 468.86 C 655.08 471.31, 655.90 472.55, 658.10 474.03 C 660.31 475.51, 661.92 476.33, 665.12 476.25 C 668.32 476.18, 670.15 475.13, 674.11 473.66 C 678.07 472.19, 680.32 471.08, 684.91 468.90 C 689.50 466.73, 692.15 465.34, 697.04 462.80 C 701.93 460.25, 704.63 458.70, 709.37 456.19 C 714.11 453.68, 716.64 452.30, 720.75 450.25 C 724.86 448.20, 727.01 447.49, 729.94 445.94 C 732.86 444.38, 734.08 443.83, 735.38 442.49 C 736.67 441.15, 736.75 440.38, 736.41 439.24 C 736.08 438.09, 735.25 437.29, 733.71 436.76 C 732.16 436.24, 730.85 436.06, 728.67 436.61 C 726.50 437.16, 725.20 438.03, 722.83 439.53 C 720.46 441.03, 719.23 442.21, 716.83 444.10 C 714.44 446.00, 712.98 446.96, 710.84 449.01 C 708.71 451.07, 707.50 452.21, 706.14 454.39 C 704.78 456.58, 704.18 457.82, 704.03 459.93 C 703.88 462.04, 704.19 463.33, 705.38 464.94 C 706.57 466.55, 707.73 467.42, 709.99 467.99 C 712.26 468.55, 713.89 468.61, 716.70 467.77 C 719.51 466.93, 720.97 465.64, 724.04 463.78 C 727.12 461.93, 728.85 460.66, 732.10 458.51 C 735.35 456.35, 737.18 455.03, 740.29 453.03 C 743.40 451.02, 745.55 450.21, 747.66 448.48 C 749.76 446.76, 750.36 445.51, 750.82 444.41 C 751.28 443.31, 750.83 442.72, 749.96 442.97 C 749.09 443.21, 747.77 443.51, 746.46 445.63 C 745.15 447.75, 744.93 449.82, 743.41 453.57 C 741.90 457.31, 740.95 459.75, 738.87 464.34 C 736.79 468.93, 735.51 471.53, 733.01 476.52 C 730.50 481.50, 729.12 484.22, 726.36 489.26 C 723.61 494.30, 722.14 497.00, 719.23 501.71 C 716.33 506.43, 714.80 508.85, 711.85 512.83 C 708.90 516.81, 707.32 518.73, 704.48 521.62 C 701.65 524.51, 699.98 525.57, 697.68 527.29 C 695.38 529.01, 694.39 529.56, 692.99 530.23 C 691.58 530.91, 691.23 530.96, 690.66 530.66 C 690.09 530.37, 690.09 530.00, 690.15 528.76 C 690.21 527.51, 690.54 526.74, 690.95 524.45 C 691.36 522.16, 691.13 520.47, 692.22 517.30 C 693.30 514.13, 694.12 512.19, 696.40 508.61 C 698.67 505.02, 700.19 503.05, 703.60 499.37 C 707.01 495.69, 709.13 493.79, 713.44 490.20 C 717.75 486.61, 720.19 484.82, 725.18 481.41 C 730.16 478.00, 732.94 476.34, 738.37 473.14 C 743.80 469.93, 746.77 468.43, 752.32 465.39 C 757.87 462.35, 760.77 460.82, 766.13 457.94 C 771.48 455.06, 774.25 453.65, 779.11 450.99 C 783.96 448.33, 786.36 447.02, 790.39 444.64 C 794.41 442.26, 796.34 441.26, 799.24 439.08 C 802.13 436.91, 803.48 435.94, 804.87 433.76 C 806.26 431.58, 806.52 430.23, 806.19 428.18 C 805.87 426.13, 805.10 424.80, 803.25 423.51 C 801.39 422.21, 799.76 421.52, 796.92 421.71 C 794.08 421.89, 792.28 422.73, 789.03 424.44 C 785.77 426.14, 783.94 427.59, 780.66 430.25 C 777.38 432.91, 775.53 434.60, 772.62 437.76 C 769.72 440.92, 768.20 442.69, 766.14 446.05 C 764.08 449.41, 762.87 451.24, 762.31 454.55 C 761.76 457.86, 762.12 459.80, 763.34 462.61 C 764.56 465.41, 765.70 466.93, 768.39 468.57 C 771.09 470.22, 773.06 470.68, 776.80 470.84 C 780.53 470.99, 782.71 470.43, 787.07 469.35 C 791.44 468.28, 793.83 467.36, 798.62 465.46 C 803.40 463.55, 806.09 462.28, 811.00 459.85 C 815.91 457.41, 818.51 455.89, 823.16 453.28 C 827.82 450.67, 830.21 449.10, 834.29 446.80 C 838.36 444.50, 840.86 443.55, 843.52 441.76 C 846.18 439.97, 847.04 438.91, 847.59 437.84 C 848.13 436.77, 847.48 436.23, 846.24 436.41 C 845.00 436.59, 843.37 436.89, 841.40 438.75 C 839.43 440.62, 838.50 442.75, 836.39 445.72 C 834.28 448.70, 832.88 450.71, 830.86 453.62 C 828.83 456.53, 827.26 457.79, 826.27 460.26 C 825.28 462.74, 825.26 464.21, 825.91 465.99 C 826.56 467.76, 827.51 468.70, 829.51 469.12 C 831.51 469.55, 833.14 469.54, 835.91 468.13 C 838.69 466.73, 839.99 464.76, 843.38 462.10 C 846.76 459.44, 848.86 457.66, 852.86 454.85 C 856.86 452.04, 859.32 450.40, 863.38 448.05 C 867.44 445.71, 869.81 444.58, 873.17 443.12 C 876.53 441.66, 878.25 441.47, 880.19 440.74 C 882.14 440.02, 882.55 439.56, 882.90 439.51 C 883.25 439.46, 882.78 439.61, 881.94 440.51 C 881.10 441.40, 880.12 442.16, 878.72 443.99 C 877.32 445.81, 876.38 447.28, 874.95 449.65 C 873.53 452.01, 872.34 453.44, 871.59 455.83 C 870.83 458.22, 870.64 459.70, 871.17 461.59 C 871.70 463.48, 872.41 464.52, 874.23 465.26 C 876.04 466.00, 877.60 466.34, 880.24 465.29 C 882.88 464.25, 884.18 462.42, 887.42 460.04 C 890.65 457.66, 892.63 455.90, 896.41 453.40 C 900.19 450.90, 902.55 449.46, 906.31 447.54 C 910.08 445.61, 912.44 444.97, 915.23 443.78 C 918.02 442.59, 919.12 442.11, 920.27 441.58 C 921.43 441.05, 921.32 440.78, 920.99 441.13 C 920.65 441.49, 919.80 441.91, 918.61 443.36 C 917.42 444.81, 916.38 445.99, 915.06 448.38 C 913.74 450.76, 912.95 452.46, 912.02 455.29 C 911.09 458.12, 910.48 459.78, 910.40 462.51 C 910.33 465.24, 910.45 466.80, 911.66 468.95 C 912.87 471.10, 913.98 472.27, 916.46 473.26 C 918.94 474.25, 920.71 474.50, 924.06 473.90 C 927.40 473.30, 929.25 472.09, 933.17 470.26 C 937.10 468.43, 939.35 467.19, 943.66 464.75 C 947.96 462.31, 950.39 460.80, 954.69 458.05 C 958.98 455.29, 961.32 453.69, 965.14 450.98 C 968.97 448.26, 970.97 446.94, 973.81 444.49 C 976.65 442.03, 978.10 440.95, 979.35 438.69 C 980.61 436.43, 980.66 435.02, 980.07 433.19 C 979.47 431.36, 978.46 430.29, 976.39 429.55 C 974.33 428.82, 972.48 428.57, 969.75 429.51 C 967.03 430.46, 965.53 431.92, 962.77 434.26 C 960.00 436.60, 958.52 438.31, 955.91 441.22 C 953.29 444.14, 951.74 445.76, 949.70 448.84 C 947.65 451.92, 946.45 453.56, 945.69 456.63 C 944.92 459.69, 944.99 461.49, 945.85 464.16 C 946.71 466.83, 947.66 468.26, 949.99 469.97 C 952.31 471.67, 954.09 472.46, 957.47 472.67 C 960.85 472.89, 962.86 472.14, 966.86 471.04 C 970.87 469.94, 973.09 469.00, 977.50 467.17 C 981.91 465.35, 984.35 464.12, 988.90 461.91 C 993.45 459.70, 995.95 458.30, 1000.23 456.13 C 1004.51 453.97, 1007.09 452.83, 1010.32 451.08 C 1013.55 449.34, 1015.09 448.59, 1016.38 447.41 C 1017.67 446.22, 1017.41 445.43, 1016.76 445.14 C 1016.12 444.85, 1014.92 444.93, 1013.16 445.95 C 1011.40 446.97, 1009.96 448.12, 1007.96 450.23 C 1005.95 452.35, 1004.59 453.98, 1003.12 456.54 C 1001.65 459.09, 1000.91 460.68, 1000.60 463.02 C 1000.29 465.37, 1000.46 466.70, 1001.57 468.26 C 1002.67 469.82, 1003.83 470.67, 1006.11 470.84 C 1008.40 471.02, 1009.94 470.53, 1013.00 469.13 C 1016.06 467.73, 1017.77 466.00, 1021.42 463.84 C 1025.07 461.68, 1027.36 460.27, 1031.23 458.34 C 1035.10 456.41, 1037.54 455.44, 1040.77 454.19 C 1043.99 452.93, 1045.60 452.67, 1047.34 452.06 C 1049.08 451.45, 1049.34 451.02, 1049.46 451.13 C 1049.59 451.24, 1048.90 451.52, 1047.98 452.63 C 1047.06 453.74, 1045.94 454.66, 1044.85 456.66 C 1043.77 458.66, 1042.98 460.14, 1042.56 462.63 C 1042.13 465.11, 1042.02 466.79, 1042.73 469.09 C 1043.44 471.39, 1044.14 472.78, 1046.09 474.13 C 1048.04 475.48, 1049.57 476.29, 1052.48 475.85 C 1055.38 475.41, 1056.95 474.20, 1060.61 471.91 C 1064.27 469.62, 1066.29 467.97, 1070.78 464.40 C 1075.27 460.83, 1077.86 458.60, 1083.06 454.07 C 1088.25 449.54, 1091.19 446.86, 1096.76 441.76 C 1102.32 436.65, 1105.39 433.80, 1110.86 428.56 C 1116.34 423.32, 1119.23 420.44, 1124.13 415.56 C 1129.03 410.68, 1131.44 408.14, 1135.36 404.15 C 1139.27 400.16, 1141.60 398.43, 1143.71 395.60 C 1145.83 392.78, 1146.26 391.30, 1145.94 390.02 C 1145.62 388.75, 1143.99 388.09, 1142.10 389.22 C 1140.21 390.34, 1139.10 392.06, 1136.48 395.65 C 1133.86 399.23, 1132.26 402.07, 1129.00 407.14 C 1125.75 412.21, 1123.72 415.42, 1120.20 421.00 C 1116.69 426.58, 1114.70 429.69, 1111.42 435.05 C 1108.13 440.41, 1106.49 443.20, 1103.77 447.81 C 1101.05 452.42, 1099.60 454.56, 1097.84 458.11 C 1096.08 461.65, 1095.43 463.27, 1094.96 465.54 C 1094.49 467.81, 1095.03 468.58, 1095.49 469.46 C 1095.95 470.33, 1096.46 470.36, 1097.27 469.91 C 1098.07 469.47, 1098.43 469.12, 1099.50 467.22 C 1100.57 465.31, 1101.01 463.86, 1102.61 460.40 C 1104.21 456.93, 1105.08 454.54, 1107.51 449.88 C 1109.94 445.22, 1111.54 442.42, 1114.77 437.09 C 1118.00 431.77, 1119.97 428.67, 1123.65 423.25 C 1127.33 417.84, 1129.59 414.81, 1133.17 410.03 C 1136.74 405.24, 1138.95 402.89, 1141.54 399.34 C 1144.13 395.79, 1145.51 394.38, 1146.09 392.29 C 1146.68 390.20, 1145.76 388.92, 1144.47 388.89 C 1143.18 388.86, 1142.06 389.63, 1139.64 392.14 C 1137.22 394.65, 1135.98 397.22, 1132.39 401.43 C 1128.80 405.63, 1126.44 408.21, 1121.69 413.17 C 1116.93 418.12, 1114.05 420.99, 1108.61 426.20 C 1103.17 431.41, 1100.08 434.25, 1094.47 439.23 C 1088.87 444.21, 1085.88 446.84, 1080.57 451.09 C 1075.26 455.33, 1072.55 457.43, 1067.92 460.45 C 1063.30 463.46, 1060.92 464.54, 1057.46 466.16 C 1053.99 467.78, 1052.40 467.78, 1050.60 468.54 C 1048.81 469.30, 1048.72 469.86, 1048.48 469.96 C 1048.25 470.06, 1048.74 469.89, 1049.41 469.03 C 1050.09 468.16, 1050.92 467.41, 1051.87 465.63 C 1052.82 463.84, 1053.61 462.51, 1054.16 460.11 C 1054.71 457.72, 1055.00 456.01, 1054.61 453.65 C 1054.22 451.28, 1053.81 449.85, 1052.20 448.29 C 1050.60 446.73, 1049.33 445.90, 1046.57 445.84 C 1043.81 445.79, 1042.01 446.65, 1038.39 448.02 C 1034.78 449.40, 1032.54 450.80, 1028.50 452.71 C 1024.45 454.62, 1022.04 455.85, 1018.18 457.58 C 1014.32 459.30, 1011.98 459.89, 1009.21 461.32 C 1006.44 462.75, 1005.39 463.57, 1004.34 464.72 C 1003.28 465.86, 1003.44 466.68, 1003.93 467.05 C 1004.42 467.41, 1005.26 467.38, 1006.77 466.53 C 1008.27 465.68, 1009.52 464.76, 1011.45 462.81 C 1013.38 460.86, 1014.80 459.33, 1016.41 456.78 C 1018.02 454.22, 1019.04 452.48, 1019.51 450.03 C 1019.97 447.58, 1019.77 446.05, 1018.76 444.54 C 1017.74 443.02, 1016.73 442.26, 1014.44 442.47 C 1012.16 442.68, 1010.69 443.78, 1007.35 445.59 C 1004.01 447.39, 1001.88 449.15, 997.75 451.48 C 993.61 453.82, 991.13 455.18, 986.68 457.25 C 982.23 459.33, 979.75 460.41, 975.49 461.86 C 971.24 463.30, 968.95 463.91, 965.41 464.48 C 961.87 465.05, 960.20 464.73, 957.78 464.72 C 955.35 464.71, 954.50 464.84, 953.27 464.44 C 952.04 464.03, 951.74 463.79, 951.63 462.68 C 951.52 461.57, 951.90 460.82, 952.73 458.86 C 953.55 456.91, 954.04 455.41, 955.75 452.91 C 957.46 450.41, 958.80 448.73, 961.26 446.38 C 963.73 444.02, 965.55 442.86, 968.06 441.13 C 970.58 439.40, 972.13 438.99, 973.84 437.71 C 975.56 436.44, 976.05 435.63, 976.64 434.77 C 977.22 433.91, 977.23 433.39, 976.77 433.43 C 976.31 433.46, 975.76 433.64, 974.34 434.95 C 972.93 436.25, 972.17 437.60, 969.70 439.96 C 967.23 442.32, 965.56 444.00, 962.01 446.76 C 958.46 449.51, 956.14 451.12, 951.96 453.74 C 947.77 456.36, 945.32 457.79, 941.07 459.86 C 936.83 461.93, 934.45 462.88, 930.73 464.08 C 927.00 465.29, 925.03 465.28, 922.44 465.87 C 919.86 466.46, 919.00 466.84, 917.82 467.03 C 916.64 467.22, 916.52 467.38, 916.55 466.82 C 916.57 466.26, 917.07 465.74, 917.96 464.22 C 918.85 462.70, 919.70 461.50, 921.00 459.20 C 922.31 456.90, 923.43 455.42, 924.46 452.72 C 925.49 450.01, 926.11 448.28, 926.16 445.66 C 926.21 443.05, 925.93 441.50, 924.73 439.66 C 923.52 437.81, 922.53 436.88, 920.15 436.44 C 917.76 436.00, 916.12 436.29, 912.80 437.46 C 909.47 438.62, 907.45 440.13, 903.53 442.26 C 899.60 444.39, 897.22 445.84, 893.18 448.10 C 889.14 450.36, 886.79 451.68, 883.31 453.57 C 879.83 455.46, 877.72 455.95, 875.77 457.55 C 873.83 459.16, 873.64 460.51, 873.57 461.58 C 873.51 462.66, 874.28 463.12, 875.45 462.93 C 876.63 462.75, 877.79 462.22, 879.46 460.65 C 881.13 459.08, 882.22 457.60, 883.80 455.09 C 885.37 452.58, 886.52 450.90, 887.34 448.11 C 888.15 445.32, 888.35 443.54, 887.86 441.14 C 887.38 438.74, 886.72 437.43, 884.92 436.11 C 883.11 434.78, 881.68 434.21, 878.84 434.53 C 875.99 434.86, 874.31 435.96, 870.68 437.73 C 867.04 439.51, 864.85 440.93, 860.66 443.41 C 856.48 445.88, 854.00 447.53, 849.76 450.10 C 845.52 452.68, 843.15 454.17, 839.46 456.27 C 835.76 458.38, 833.55 458.94, 831.29 460.64 C 829.03 462.33, 828.59 463.59, 828.17 464.76 C 827.75 465.94, 828.26 466.56, 829.19 466.50 C 830.12 466.43, 831.21 466.08, 832.83 464.46 C 834.45 462.84, 835.21 461.08, 837.32 458.40 C 839.42 455.71, 841.04 453.90, 843.37 451.05 C 845.70 448.19, 847.71 446.83, 848.98 444.14 C 850.24 441.44, 850.20 439.55, 849.70 437.59 C 849.19 435.63, 848.36 434.61, 846.45 434.33 C 844.54 434.06, 843.13 434.59, 840.16 436.22 C 837.19 437.84, 835.46 439.86, 831.60 442.47 C 827.74 445.08, 825.40 446.64, 820.88 449.27 C 816.35 451.90, 813.76 453.35, 808.95 455.62 C 804.14 457.88, 801.45 459.04, 796.83 460.60 C 792.21 462.16, 789.79 462.80, 785.86 463.43 C 781.92 464.05, 780.00 463.90, 777.16 463.72 C 774.32 463.55, 773.28 463.24, 771.66 462.55 C 770.04 461.86, 769.53 461.59, 769.06 460.27 C 768.59 458.95, 768.77 458.12, 769.31 455.94 C 769.85 453.77, 770.15 452.15, 771.74 449.39 C 773.33 446.62, 774.66 444.83, 777.27 442.11 C 779.87 439.39, 781.70 437.84, 784.77 435.80 C 787.83 433.77, 789.86 433.08, 792.60 431.94 C 795.34 430.80, 796.71 430.75, 798.47 430.09 C 800.23 429.42, 800.67 428.96, 801.38 428.61 C 802.09 428.25, 802.27 428.03, 802.02 428.31 C 801.77 428.59, 801.42 428.79, 800.12 430.03 C 798.83 431.26, 798.01 432.37, 795.55 434.49 C 793.09 436.61, 791.52 438.06, 787.82 440.64 C 784.12 443.22, 781.76 444.61, 777.06 447.39 C 772.35 450.18, 769.60 451.63, 764.29 454.58 C 758.98 457.52, 756.09 459.06, 750.53 462.12 C 744.96 465.18, 741.98 466.68, 736.47 469.88 C 730.95 473.08, 728.11 474.73, 722.97 478.12 C 717.82 481.52, 715.30 483.27, 710.74 486.85 C 706.17 490.42, 703.94 492.29, 700.14 495.98 C 696.34 499.68, 694.61 501.62, 691.74 505.32 C 688.87 509.01, 687.65 510.89, 685.78 514.47 C 683.90 518.04, 682.77 519.91, 682.36 523.17 C 681.95 526.43, 682.51 528.33, 683.73 530.77 C 684.94 533.21, 686.20 534.32, 688.42 535.36 C 690.64 536.39, 692.19 536.55, 694.82 535.93 C 697.45 535.31, 698.85 534.43, 701.55 532.26 C 704.25 530.08, 705.52 528.43, 708.32 525.07 C 711.11 521.71, 712.62 519.69, 715.53 515.46 C 718.44 511.23, 719.95 508.75, 722.86 503.92 C 725.77 499.09, 727.24 496.37, 730.08 491.32 C 732.91 486.26, 734.32 483.55, 737.04 478.65 C 739.76 473.75, 741.13 471.21, 743.68 466.83 C 746.23 462.44, 747.67 460.32, 749.79 456.72 C 751.90 453.13, 753.53 451.66, 754.26 448.87 C 754.99 446.08, 754.44 444.51, 753.45 442.76 C 752.46 441.01, 751.39 440.33, 749.32 440.11 C 747.25 439.89, 745.69 440.23, 743.08 441.65 C 740.48 443.08, 739.24 445.08, 736.30 447.25 C 733.36 449.43, 731.59 450.68, 728.39 452.53 C 725.19 454.38, 723.27 455.26, 720.31 456.50 C 717.35 457.75, 715.68 457.90, 713.57 458.78 C 711.46 459.65, 710.74 460.19, 709.75 460.87 C 708.77 461.54, 708.67 461.95, 708.65 462.15 C 708.64 462.35, 708.94 462.39, 709.69 461.85 C 710.44 461.31, 710.98 460.68, 712.38 459.44 C 713.79 458.20, 714.77 457.22, 716.72 455.65 C 718.68 454.08, 719.88 453.02, 722.16 451.59 C 724.44 450.16, 725.91 449.68, 728.12 448.48 C 730.32 447.29, 731.63 446.91, 733.18 445.60 C 734.73 444.28, 735.35 443.31, 735.87 441.92 C 736.39 440.52, 736.39 439.47, 735.77 438.63 C 735.14 437.80, 734.52 437.39, 732.75 437.75 C 730.98 438.10, 729.82 438.80, 726.93 440.41 C 724.05 442.03, 722.28 443.47, 718.33 445.80 C 714.38 448.14, 711.86 449.55, 707.18 452.10 C 702.49 454.64, 699.78 456.17, 694.90 458.53 C 690.02 460.89, 687.32 462.16, 682.77 463.90 C 678.22 465.64, 675.79 466.38, 672.15 467.22 C 668.51 468.06, 666.83 467.80, 664.57 468.10 C 662.30 468.40, 661.69 468.82, 660.83 468.72 C 659.97 468.62, 659.96 468.45, 660.26 467.61 C 660.57 466.78, 661.29 466.12, 662.37 464.55 C 663.45 462.98, 664.72 461.89, 665.68 459.76 C 666.63 457.63, 667.07 455.98, 667.15 453.89 C 667.23 451.80, 667.03 450.44, 666.08 449.33 C 665.13 448.22, 664.19 447.79, 662.39 448.33 C 660.60 448.86, 659.45 449.92, 657.12 452.00 C 654.80 454.08, 653.55 456.20, 650.78 458.74 C 648.01 461.28, 646.29 462.66, 643.28 464.68 C 640.28 466.70, 638.45 467.52, 635.78 468.84 C 633.10 470.16, 631.72 470.44, 629.91 471.28 C 628.10 472.12, 627.54 472.57, 626.72 473.04 C 625.90 473.50, 625.82 473.77, 625.80 473.60 C 625.78 473.43, 625.95 473.18, 626.63 472.19 C 627.30 471.20, 627.87 470.41, 629.19 468.66 C 630.52 466.90, 631.33 465.55, 633.24 463.41 C 635.15 461.27, 636.39 459.86, 638.75 457.96 C 641.11 456.05, 642.77 455.42, 645.05 453.88 C 647.34 452.34, 648.66 451.81, 650.17 450.24 C 651.68 448.68, 652.23 447.57, 652.59 446.04 C 652.95 444.52, 652.81 443.43, 651.99 442.62 C 651.17 441.80, 650.42 441.44, 648.47 441.96 C 646.53 442.49, 645.33 443.40, 642.26 445.24 C 639.20 447.09, 637.27 448.60, 633.14 451.19 C 629.00 453.78, 626.41 455.38, 621.58 458.20 C 616.75 461.03, 613.96 462.69, 608.98 465.30 C 604.00 467.92, 601.24 469.33, 596.69 471.26 C 592.14 473.19, 589.72 473.94, 586.23 474.96 C 582.73 475.97, 581.20 475.91, 579.22 476.33 C 577.24 476.74, 576.87 477.22, 576.33 477.04 C 575.80 476.86, 576.06 476.61, 576.56 475.43 C 577.07 474.25, 577.78 473.24, 578.87 471.14 C 579.96 469.04, 580.88 467.57, 581.99 464.94 C 583.11 462.30, 584.06 460.66, 584.44 457.96 C 584.82 455.26, 584.76 453.54, 583.90 451.44 C 583.04 449.34, 582.26 448.22, 580.13 447.44 C 578.00 446.67, 576.37 446.53, 573.25 447.57 C 570.13 448.61, 568.32 450.31, 564.51 452.65 C 560.69 454.98, 558.37 456.56, 554.18 459.24 C 550.00 461.91, 547.54 463.58, 543.59 466.02 C 539.63 468.46, 537.33 469.56, 534.40 471.42 C 531.48 473.27, 530.19 474.00, 528.96 475.29 C 527.72 476.58, 527.89 477.52, 528.22 477.88 C 528.56 478.24, 529.39 478.21, 530.64 477.10 C 531.90 475.99, 532.80 474.74, 534.51 472.30 C 536.22 469.87, 537.27 467.91, 539.19 464.94 C 541.11 461.98, 542.90 460.36, 544.12 457.48 C 545.34 454.60, 545.61 452.78, 545.31 450.53 C 545.00 448.29, 544.34 447.04, 542.57 446.26 C 540.81 445.49, 539.20 445.35, 536.49 446.66 C 533.78 447.97, 532.42 450.10, 529.02 452.80 C 525.62 455.51, 523.48 457.26, 519.50 460.19 C 515.52 463.11, 513.18 464.87, 509.13 467.42 C 505.08 469.98, 502.84 471.27, 499.25 472.95 C 495.66 474.64, 493.73 474.97, 491.17 475.86 C 488.60 476.74, 487.73 477.12, 486.41 477.39 C 485.09 477.66, 484.83 477.80, 484.57 477.22 C 484.31 476.65, 484.55 476.12, 485.13 474.52 C 485.71 472.92, 486.22 471.63, 487.45 469.22 C 488.68 466.81, 489.85 465.12, 491.28 462.46 C 492.70 459.79, 493.96 458.23, 494.57 455.90 C 495.18 453.57, 494.99 452.05, 494.34 450.80 C 493.69 449.56, 492.84 449.04, 491.31 449.66 C 489.78 450.27, 488.79 451.39, 486.70 453.89 C 484.61 456.39, 483.54 458.84, 480.85 462.15 C 478.16 465.46, 476.40 467.36, 473.25 470.46 C 470.10 473.55, 468.26 475.20, 465.09 477.64 C 461.93 480.07, 460.09 481.06, 457.42 482.62 C 454.75 484.18, 453.44 484.52, 451.75 485.45 C 450.06 486.38, 449.66 486.90, 448.98 487.27 C 448.30 487.65, 448.26 487.81, 448.35 487.33 C 448.44 486.84, 448.68 486.38, 449.44 484.86 C 450.20 483.35, 450.70 482.17, 452.14 479.74 C 453.59 477.31, 454.50 475.54, 456.67 472.71 C 458.83 469.89, 460.33 468.24, 462.96 465.60 C 465.60 462.96, 467.12 461.55, 469.85 459.53 C 472.58 457.50, 474.35 456.97, 476.60 455.48 C 478.84 453.98, 479.77 453.45, 481.09 452.05 C 482.42 450.64, 482.89 449.83, 483.22 448.47 C 483.56 447.11, 483.44 446.05, 482.77 445.26 C 482.11 444.46, 481.55 444.11, 479.90 444.50 C 478.24 444.89, 477.18 445.50, 474.51 447.22 C 471.85 448.94, 470.31 450.48, 466.57 453.11 C 462.83 455.73, 460.44 457.30, 455.80 460.34 C 451.16 463.39, 448.43 465.21, 443.37 468.33 C 438.32 471.45, 435.51 473.24, 430.54 475.95 C 425.56 478.67, 422.89 480.04, 418.51 481.90 C 414.13 483.76, 411.82 484.34, 408.63 485.25 C 405.44 486.15, 404.22 486.24, 402.55 486.42 C 400.89 486.61, 400.63 486.88, 400.30 486.18 C 399.97 485.48, 400.39 484.87, 400.90 482.90 C 401.42 480.93, 401.77 479.33, 402.88 476.34 C 404.00 473.35, 404.97 471.29, 406.48 467.95 C 407.98 464.61, 409.45 462.80, 410.41 459.63 C 411.38 456.47, 411.75 454.68, 411.30 452.14 C 410.86 449.61, 410.05 448.22, 408.20 446.96 C 406.35 445.70, 404.84 445.22, 402.04 445.83 C 399.23 446.45, 397.62 447.82, 394.18 450.03 C 390.74 452.24, 388.76 453.88, 384.85 456.90 C 380.93 459.92, 378.61 461.88, 374.59 465.11 C 370.57 468.35, 368.31 470.28, 364.74 473.07 C 361.17 475.85, 359.01 476.96, 356.74 479.05 C 354.46 481.15, 353.87 482.28, 353.36 483.53 C 352.85 484.77, 353.42 485.43, 354.19 485.28 C 354.96 485.13, 355.99 484.65, 357.21 482.78 C 358.44 480.91, 358.89 479.08, 360.33 475.95 C 361.76 472.82, 362.76 470.67, 364.38 467.14 C 366.00 463.62, 367.33 461.69, 368.43 458.33 C 369.54 454.97, 370.16 453.12, 369.90 450.35 C 369.64 447.59, 368.78 446.05, 367.12 444.49 C 365.45 442.92, 364.11 442.32, 361.58 442.51 C 359.05 442.71, 357.58 443.50, 354.45 445.46 C 351.31 447.43, 349.62 449.12, 345.91 452.33 C 342.19 455.54, 339.96 457.63, 335.86 461.51 C 331.76 465.40, 329.41 467.79, 325.40 471.76 C 321.38 475.73, 319.15 478.02, 315.80 481.35 C 312.45 484.69, 310.35 486.04, 308.66 488.43 C 306.97 490.83, 307.12 492.30, 307.36 493.34 C 307.60 494.38, 308.67 494.65, 309.88 493.64 C 311.08 492.63, 311.89 491.27, 313.37 488.28 C 314.86 485.28, 315.55 482.82, 317.29 478.66 C 319.02 474.50, 320.31 471.90, 322.05 467.49 C 323.79 463.07, 324.80 460.69, 326.00 456.59 C 327.20 452.48, 328.03 450.49, 328.06 446.95 C 328.09 443.41, 327.60 441.49, 326.15 438.89 C 324.70 436.28, 323.21 435.20, 320.80 433.94 C 318.39 432.69, 316.81 432.58, 314.11 432.60 C 311.41 432.62, 309.97 433.11, 307.29 434.06 C 304.61 435.00, 303.13 435.67, 300.73 437.30 C 298.32 438.94, 296.96 440.19, 295.26 442.23 C 293.56 444.28, 292.89 445.59, 292.23 447.52 C 291.57 449.45, 291.43 450.64, 291.96 451.88 C 292.49 453.13, 293.59 453.71, 294.89 453.75" style="stroke: black; fill: black;"/><path d="M 1086.64,456.70 C 1087.00 457.75, 1087.40 458.33, 1089.01 459.13 C 1090.62 459.94, 1091.80 460.67, 1094.69 460.72 C 1097.59 460.77, 1099.51 459.93, 1103.49 459.38 C 1107.48 458.82, 1109.95 458.65, 1114.62 457.95 C 1119.29 457.25, 1124.51 457.22, 1126.84 455.86 C 1129.18 454.50, 1128.87 451.96, 1126.31 451.15 C 1123.74 450.35, 1118.66 451.64, 1114.02 451.84 C 1109.38 452.05, 1106.98 452.32, 1103.12 452.18 C 1099.26 452.04, 1097.42 451.09, 1094.71 451.12 C 1092.01 451.16, 1091.08 451.82, 1089.58 452.37 C 1088.08 452.91, 1087.80 452.99, 1087.21 453.85 C 1086.62 454.72, 1086.28 455.64, 1086.64 456.70" style="stroke: black; fill: black;"/><path d="M 1285.01,434.74 C 1285.01 433.53, 1284.64 432.66, 1283.32 431.52 C 1282.00 430.38, 1280.87 429.60, 1278.39 429.03 C 1275.92 428.47, 1274.12 428.22, 1270.95 428.69 C 1267.77 429.15, 1266.03 430.11, 1262.53 431.37 C 1259.03 432.63, 1257.00 433.37, 1253.45 434.97 C 1249.91 436.57, 1247.90 437.44, 1244.80 439.37 C 1241.71 441.30, 1239.95 442.25, 1237.98 444.63 C 1236.02 447.01, 1235.38 448.61, 1234.96 451.28 C 1234.55 453.95, 1234.83 455.46, 1235.92 457.97 C 1237.01 460.48, 1238.04 461.87, 1240.40 463.84 C 1242.77 465.82, 1244.64 466.40, 1247.74 467.84 C 1250.84 469.28, 1252.80 469.79, 1255.91 471.06 C 1259.01 472.33, 1260.69 473.18, 1263.26 474.20 C 1265.83 475.23, 1267.13 475.66, 1268.76 476.18 C 1270.38 476.71, 1271.02 476.69, 1271.39 476.81 C 1271.76 476.93, 1271.62 476.64, 1270.60 476.79 C 1269.57 476.93, 1268.51 476.76, 1266.26 477.56 C 1264.00 478.36, 1262.50 479.57, 1259.31 480.79 C 1256.13 482.01, 1253.99 482.75, 1250.35 483.66 C 1246.71 484.56, 1244.48 484.92, 1241.13 485.33 C 1237.78 485.75, 1235.96 485.45, 1233.59 485.73 C 1231.22 486.00, 1230.30 486.32, 1229.30 486.71 C 1228.30 487.11, 1228.19 487.49, 1228.59 487.71 C 1228.99 487.92, 1229.70 488.34, 1231.31 487.78 C 1232.93 487.22, 1234.00 486.51, 1236.67 484.90 C 1239.34 483.29, 1240.97 481.84, 1244.68 479.73 C 1248.40 477.61, 1250.73 476.50, 1255.23 474.33 C 1259.74 472.17, 1262.35 471.05, 1267.20 468.90 C 1272.05 466.75, 1274.73 465.63, 1279.48 463.58 C 1284.23 461.53, 1286.65 460.44, 1290.93 458.65 C 1295.21 456.86, 1297.39 456.05, 1300.89 454.64 C 1304.38 453.24, 1306.40 452.87, 1308.40 451.64 C 1310.40 450.42, 1310.79 449.31, 1310.88 448.53 C 1310.97 447.75, 1310.20 447.36, 1308.86 447.75 C 1307.52 448.14, 1306.01 448.57, 1304.17 450.50 C 1302.33 452.42, 1301.48 454.42, 1299.68 457.39 C 1297.88 460.35, 1296.58 462.19, 1295.17 465.30 C 1293.76 468.41, 1292.88 470.12, 1292.63 472.95 C 1292.38 475.77, 1292.71 477.30, 1293.92 479.42 C 1295.12 481.55, 1296.21 482.66, 1298.67 483.57 C 1301.13 484.48, 1302.97 484.76, 1306.21 483.99 C 1309.46 483.21, 1311.21 481.79, 1314.91 479.69 C 1318.61 477.59, 1320.66 476.18, 1324.71 473.48 C 1328.77 470.78, 1331.07 469.09, 1335.16 466.17 C 1339.26 463.25, 1341.52 461.50, 1345.19 458.88 C 1348.87 456.27, 1351.20 455.15, 1353.54 453.09 C 1355.87 451.04, 1356.56 449.75, 1356.87 448.61 C 1357.17 447.46, 1356.24 446.74, 1355.05 447.36 C 1353.87 447.97, 1352.72 448.83, 1350.93 451.67 C 1349.14 454.52, 1348.40 457.04, 1346.11 461.59 C 1343.82 466.13, 1342.38 469.01, 1339.49 474.40 C 1336.60 479.79, 1334.91 482.80, 1331.66 488.54 C 1328.41 494.29, 1326.65 497.39, 1323.25 503.13 C 1319.84 508.87, 1318.04 511.89, 1314.65 517.24 C 1311.27 522.59, 1309.56 525.31, 1306.31 529.87 C 1303.06 534.43, 1301.41 536.65, 1298.41 540.05 C 1295.41 543.45, 1293.69 544.77, 1291.31 546.87 C 1288.94 548.97, 1287.78 549.57, 1286.53 550.56 C 1285.27 551.55, 1285.15 551.90, 1285.06 551.82 C 1284.96 551.74, 1285.49 551.55, 1286.05 550.16 C 1286.60 548.78, 1286.74 547.75, 1287.82 544.91 C 1288.90 542.08, 1289.27 539.90, 1291.45 535.98 C 1293.64 532.05, 1295.16 529.68, 1298.75 525.28 C 1302.34 520.88, 1304.63 518.50, 1309.40 513.97 C 1314.18 509.44, 1317.00 507.12, 1322.62 502.65 C 1328.25 498.18, 1331.42 495.94, 1337.52 491.62 C 1343.62 487.30, 1346.95 485.14, 1353.13 481.03 C 1359.32 476.93, 1362.55 474.87, 1368.45 471.11 C 1374.36 467.35, 1377.37 465.49, 1382.66 462.24 C 1387.95 458.98, 1390.52 457.39, 1394.90 454.85 C 1399.28 452.31, 1401.40 451.30, 1404.55 449.54 C 1407.70 447.78, 1409.13 447.29, 1410.64 446.05 C 1412.16 444.80, 1412.30 444.08, 1412.14 443.31 C 1411.99 442.54, 1411.15 442.09, 1409.87 442.19 C 1408.59 442.29, 1407.32 442.51, 1405.74 443.81 C 1404.15 445.12, 1403.29 446.37, 1401.95 448.70 C 1400.61 451.03, 1400.06 452.67, 1399.02 455.45 C 1397.97 458.23, 1397.44 459.79, 1396.73 462.62 C 1396.02 465.44, 1395.80 466.93, 1395.48 469.58 C 1395.16 472.23, 1395.18 473.55, 1395.13 475.85 C 1395.09 478.16, 1395.19 479.28, 1395.26 481.11 C 1395.33 482.93, 1395.47 483.75, 1395.48 484.98 C 1395.49 486.21, 1395.51 486.60, 1395.29 487.25 C 1395.07 487.90, 1394.98 487.97, 1394.37 488.20 C 1393.77 488.43, 1393.36 488.35, 1392.27 488.40 C 1391.17 488.44, 1390.40 488.45, 1388.92 488.45 C 1387.43 488.45, 1386.47 488.49, 1384.84 488.41 C 1383.21 488.33, 1382.25 488.23, 1380.75 488.05 C 1379.25 487.86, 1378.46 487.61, 1377.36 487.46 C 1376.27 487.31, 1375.81 487.20, 1375.28 487.30 C 1374.75 487.40, 1374.66 487.68, 1374.71 487.96 C 1374.75 488.23, 1374.78 488.59, 1375.49 488.68 C 1376.20 488.76, 1376.67 488.80, 1378.25 488.39 C 1379.83 487.98, 1380.96 487.74, 1383.39 486.64 C 1385.82 485.53, 1387.16 484.48, 1390.38 482.85 C 1393.59 481.22, 1395.49 480.42, 1399.47 478.49 C 1403.44 476.56, 1405.69 475.55, 1410.23 473.20 C 1414.78 470.85, 1417.29 469.58, 1422.19 466.74 C 1427.08 463.91, 1429.66 462.32, 1434.70 459.04 C 1439.74 455.77, 1442.39 453.97, 1447.40 450.36 C 1452.41 446.74, 1454.99 444.79, 1459.77 440.97 C 1464.55 437.16, 1466.96 435.08, 1471.29 431.30 C 1475.61 427.51, 1477.74 425.51, 1481.40 422.05 C 1485.06 418.60, 1486.79 416.90, 1489.57 414.03 C 1492.34 411.16, 1494.12 409.91, 1495.28 407.69 C 1496.44 405.47, 1496.19 403.98, 1495.36 402.93 C 1494.53 401.89, 1493.02 401.38, 1491.15 402.45 C 1489.27 403.53, 1488.33 405.02, 1486.00 408.33 C 1483.67 411.64, 1482.39 414.28, 1479.50 419.01 C 1476.62 423.74, 1474.80 426.68, 1471.57 431.98 C 1468.35 437.28, 1466.52 440.24, 1463.38 445.52 C 1460.24 450.81, 1458.61 453.62, 1455.87 458.41 C 1453.13 463.19, 1451.84 465.59, 1449.69 469.45 C 1447.55 473.30, 1446.25 474.91, 1445.15 477.66 C 1444.04 480.42, 1444.18 481.58, 1444.17 483.23 C 1444.16 484.89, 1444.44 485.24, 1445.09 485.93 C 1445.73 486.62, 1446.67 486.70, 1447.38 486.69 C 1448.09 486.69, 1449.03 486.36, 1448.63 485.89 C 1448.24 485.43, 1445.98 484.49, 1445.42 484.38 C 1444.86 484.27, 1445.41 485.03, 1445.84 485.35 C 1446.27 485.66, 1446.89 486.13, 1447.55 485.97 C 1448.20 485.81, 1448.39 485.72, 1449.12 484.54 C 1449.86 483.36, 1450.22 482.65, 1451.23 480.07 C 1452.24 477.49, 1452.50 475.57, 1454.17 471.65 C 1455.84 467.72, 1457.06 465.27, 1459.60 460.46 C 1462.14 455.65, 1463.73 452.83, 1466.86 447.60 C 1469.99 442.38, 1471.83 439.44, 1475.25 434.33 C 1478.67 429.22, 1480.69 426.42, 1483.98 422.04 C 1487.27 417.66, 1489.33 415.61, 1491.68 412.42 C 1494.03 409.23, 1495.17 408.07, 1495.73 406.09 C 1496.28 404.11, 1495.53 403.00, 1494.45 402.54 C 1493.37 402.08, 1492.12 402.23, 1490.31 403.79 C 1488.50 405.36, 1487.84 407.35, 1485.42 410.37 C 1483.00 413.38, 1481.58 415.29, 1478.21 418.86 C 1474.84 422.44, 1472.75 424.45, 1468.58 428.26 C 1464.40 432.08, 1462.03 434.15, 1457.34 437.94 C 1452.65 441.73, 1450.10 443.66, 1445.13 447.19 C 1440.17 450.73, 1437.53 452.48, 1432.51 455.62 C 1427.49 458.76, 1424.93 460.27, 1420.04 462.89 C 1415.16 465.52, 1412.65 466.68, 1408.08 468.72 C 1403.50 470.76, 1401.25 471.63, 1397.19 473.08 C 1393.12 474.53, 1391.18 475.06, 1387.74 475.99 C 1384.30 476.93, 1382.63 476.90, 1379.97 477.74 C 1377.31 478.59, 1376.27 479.06, 1374.45 480.22 C 1372.64 481.39, 1371.83 482.02, 1370.91 483.58 C 1369.98 485.14, 1369.75 486.33, 1369.81 488.02 C 1369.87 489.71, 1370.28 490.68, 1371.22 492.04 C 1372.15 493.39, 1372.93 493.90, 1374.48 494.79 C 1376.03 495.68, 1377.03 495.95, 1378.96 496.49 C 1380.89 497.02, 1382.01 497.25, 1384.11 497.47 C 1386.22 497.69, 1387.40 497.81, 1389.48 497.59 C 1391.56 497.37, 1392.69 497.15, 1394.51 496.38 C 1396.33 495.61, 1397.23 495.00, 1398.59 493.73 C 1399.95 492.46, 1400.51 491.62, 1401.32 490.02 C 1402.13 488.42, 1402.33 487.51, 1402.65 485.72 C 1402.97 483.94, 1402.85 483.02, 1402.92 481.10 C 1402.98 479.19, 1402.87 478.21, 1402.98 476.14 C 1403.10 474.07, 1403.10 472.97, 1403.49 470.75 C 1403.89 468.54, 1404.14 467.33, 1404.94 465.05 C 1405.75 462.76, 1406.31 461.52, 1407.53 459.33 C 1408.75 457.14, 1409.80 456.14, 1411.05 454.11 C 1412.29 452.09, 1413.16 451.14, 1413.75 449.21 C 1414.35 447.27, 1414.37 446.04, 1414.01 444.44 C 1413.65 442.84, 1413.19 441.89, 1411.97 441.21 C 1410.74 440.53, 1409.94 440.31, 1407.88 441.04 C 1405.82 441.77, 1404.73 442.82, 1401.68 444.86 C 1398.63 446.91, 1396.83 448.40, 1392.63 451.26 C 1388.44 454.12, 1385.91 455.77, 1380.72 459.18 C 1375.52 462.60, 1372.53 464.49, 1366.66 468.33 C 1360.79 472.17, 1357.57 474.25, 1351.37 478.38 C 1345.17 482.51, 1341.84 484.67, 1335.67 488.99 C 1329.50 493.30, 1326.29 495.52, 1320.52 499.96 C 1314.76 504.40, 1311.87 506.70, 1306.84 511.17 C 1301.80 515.64, 1299.41 517.98, 1295.36 522.32 C 1291.32 526.65, 1289.54 528.88, 1286.61 532.83 C 1283.68 536.79, 1282.15 538.65, 1280.73 542.09 C 1279.31 545.53, 1279.04 547.43, 1279.51 550.03 C 1279.98 552.63, 1281.20 553.97, 1283.09 555.08 C 1284.98 556.20, 1286.52 556.40, 1288.96 555.61 C 1291.40 554.83, 1292.68 553.68, 1295.29 551.16 C 1297.90 548.63, 1299.14 546.78, 1302.00 542.98 C 1304.87 539.17, 1306.45 536.89, 1309.60 532.13 C 1312.75 527.38, 1314.43 524.62, 1317.78 519.19 C 1321.13 513.76, 1322.92 510.73, 1326.36 504.98 C 1329.79 499.24, 1331.57 496.14, 1334.96 490.46 C 1338.36 484.79, 1340.08 481.81, 1343.33 476.62 C 1346.57 471.43, 1348.35 468.79, 1351.17 464.52 C 1353.99 460.25, 1355.88 458.45, 1357.42 455.26 C 1358.97 452.06, 1359.28 450.51, 1358.89 448.54 C 1358.50 446.58, 1357.37 445.61, 1355.47 445.44 C 1353.57 445.26, 1352.12 445.86, 1349.39 447.67 C 1346.66 449.48, 1345.29 451.66, 1341.84 454.51 C 1338.39 457.36, 1336.18 459.09, 1332.16 461.93 C 1328.14 464.77, 1325.79 466.37, 1321.74 468.71 C 1317.70 471.04, 1315.48 472.17, 1311.93 473.61 C 1308.38 475.06, 1306.44 475.17, 1304.00 475.95 C 1301.57 476.74, 1300.84 477.27, 1299.75 477.55 C 1298.66 477.82, 1298.55 477.92, 1298.54 477.34 C 1298.53 476.76, 1298.87 476.26, 1299.69 474.65 C 1300.51 473.04, 1301.10 471.71, 1302.64 469.29 C 1304.18 466.87, 1305.45 465.19, 1307.40 462.54 C 1309.34 459.90, 1311.17 458.63, 1312.38 456.07 C 1313.59 453.51, 1313.71 451.82, 1313.45 449.75 C 1313.18 447.68, 1312.58 446.61, 1311.04 445.74 C 1309.50 444.86, 1308.25 444.68, 1305.73 445.40 C 1303.20 446.11, 1301.80 447.56, 1298.44 449.30 C 1295.07 451.05, 1293.07 452.12, 1288.90 454.13 C 1284.74 456.13, 1282.33 457.23, 1277.61 459.31 C 1272.90 461.40, 1270.23 462.51, 1265.33 464.56 C 1260.43 466.61, 1257.80 467.67, 1253.13 469.55 C 1248.45 471.44, 1246.06 472.36, 1241.95 473.96 C 1237.83 475.56, 1235.64 475.96, 1232.57 477.56 C 1229.49 479.17, 1228.05 480.01, 1226.57 481.98 C 1225.09 483.95, 1224.90 485.48, 1225.16 487.41 C 1225.41 489.34, 1226.12 490.42, 1227.85 491.62 C 1229.58 492.82, 1230.94 493.28, 1233.79 493.42 C 1236.65 493.55, 1238.51 492.89, 1242.13 492.31 C 1245.75 491.72, 1247.96 491.27, 1251.87 490.49 C 1255.79 489.72, 1258.04 489.35, 1261.70 488.42 C 1265.37 487.50, 1267.55 487.39, 1270.19 485.87 C 1272.84 484.35, 1273.84 482.95, 1274.94 480.82 C 1276.03 478.69, 1276.12 477.32, 1275.65 475.22 C 1275.19 473.11, 1274.42 472.01, 1272.60 470.29 C 1270.79 468.57, 1269.33 467.91, 1266.58 466.61 C 1263.84 465.31, 1261.93 465.03, 1258.89 463.78 C 1255.84 462.54, 1254.06 461.76, 1251.37 460.38 C 1248.67 459.00, 1247.37 458.05, 1245.40 456.90 C 1243.43 455.75, 1242.44 455.52, 1241.50 454.64 C 1240.55 453.76, 1240.33 453.50, 1240.70 452.51 C 1241.07 451.51, 1241.75 451.07, 1243.34 449.67 C 1244.93 448.27, 1246.06 447.13, 1248.65 445.49 C 1251.24 443.85, 1253.08 442.82, 1256.29 441.47 C 1259.50 440.13, 1261.57 439.46, 1264.70 438.77 C 1267.84 438.08, 1269.46 438.15, 1271.94 438.01 C 1274.42 437.88, 1275.36 438.06, 1277.10 438.09 C 1278.84 438.12, 1279.39 438.28, 1280.64 438.17 C 1281.88 438.07, 1282.45 438.25, 1283.33 437.57 C 1284.20 436.88, 1285.01 435.95, 1285.01 434.74" style="stroke: black; fill: black;"/><path d="M 1440.25,470.35 C 1440.44 471.40, 1440.71 471.93, 1441.90 472.77 C 1443.09 473.61, 1443.95 474.19, 1446.19 474.57 C 1448.42 474.94, 1449.92 474.98, 1453.07 474.66 C 1456.22 474.35, 1458.09 473.76, 1461.93 472.99 C 1465.77 472.22, 1467.92 471.83, 1472.26 470.81 C 1476.61 469.79, 1479.01 469.19, 1483.66 467.88 C 1488.32 466.57, 1490.87 465.82, 1495.54 464.26 C 1500.20 462.71, 1502.68 461.83, 1507.01 460.10 C 1511.33 458.38, 1513.52 457.43, 1517.18 455.66 C 1520.84 453.89, 1522.83 453.24, 1525.29 451.27 C 1527.75 449.30, 1528.67 447.97, 1529.47 445.79 C 1530.27 443.60, 1530.23 442.17, 1529.28 440.34 C 1528.33 438.50, 1527.14 437.30, 1524.71 436.59 C 1522.29 435.88, 1520.31 435.76, 1517.17 436.80 C 1514.03 437.83, 1512.33 439.38, 1509.03 441.76 C 1505.73 444.13, 1503.84 445.66, 1500.68 448.67 C 1497.51 451.68, 1495.74 453.46, 1493.19 456.80 C 1490.65 460.14, 1489.31 461.93, 1487.94 465.37 C 1486.58 468.81, 1486.08 470.76, 1486.36 474.00 C 1486.65 477.24, 1487.37 479.09, 1489.36 481.57 C 1491.36 484.05, 1493.02 485.33, 1496.34 486.41 C 1499.67 487.48, 1501.83 487.32, 1505.99 486.95 C 1510.14 486.58, 1512.44 485.97, 1517.12 484.56 C 1521.80 483.15, 1524.42 482.06, 1529.38 479.92 C 1534.34 477.77, 1537.01 476.36, 1541.91 473.84 C 1546.80 471.32, 1549.41 469.75, 1553.87 467.33 C 1558.33 464.91, 1561.00 463.66, 1564.19 461.75 C 1567.38 459.84, 1568.77 459.01, 1569.83 457.78 C 1570.88 456.56, 1570.47 455.79, 1569.45 455.65 C 1568.44 455.50, 1566.82 455.52, 1564.75 457.07 C 1562.68 458.61, 1561.46 460.59, 1559.09 463.38 C 1556.73 466.16, 1555.18 468.17, 1552.92 471.01 C 1550.67 473.84, 1548.95 475.07, 1547.80 477.54 C 1546.65 480.01, 1546.59 481.54, 1547.17 483.37 C 1547.75 485.20, 1548.66 486.23, 1550.69 486.69 C 1552.72 487.15, 1554.32 487.05, 1557.32 485.67 C 1560.32 484.30, 1561.92 482.39, 1565.68 479.81 C 1569.43 477.23, 1571.79 475.46, 1576.11 472.76 C 1580.43 470.06, 1583.05 468.48, 1587.27 466.32 C 1591.49 464.16, 1593.90 463.28, 1597.20 461.97 C 1600.49 460.65, 1602.15 460.44, 1603.73 459.74 C 1605.32 459.05, 1605.42 458.47, 1605.14 458.49 C 1604.86 458.52, 1603.83 458.64, 1602.35 459.86 C 1600.86 461.07, 1599.73 462.33, 1597.72 464.57 C 1595.72 466.81, 1594.16 468.45, 1592.32 471.05 C 1590.47 473.65, 1589.13 475.17, 1588.50 477.58 C 1587.87 480.00, 1588.05 481.56, 1589.16 483.13 C 1590.27 484.69, 1591.56 485.62, 1594.05 485.41 C 1596.53 485.19, 1598.06 483.99, 1601.59 482.05 C 1605.11 480.12, 1607.25 478.30, 1611.66 475.73 C 1616.07 473.15, 1618.87 471.49, 1623.63 469.18 C 1628.39 466.88, 1631.23 465.66, 1635.47 464.20 C 1639.72 462.74, 1642.01 462.49, 1644.87 461.89 C 1647.74 461.28, 1648.69 461.11, 1649.80 461.16 C 1650.90 461.22, 1650.77 461.27, 1650.40 462.16 C 1650.02 463.05, 1649.07 463.69, 1647.91 465.62 C 1646.76 467.54, 1646.00 469.04, 1644.64 471.79 C 1643.27 474.55, 1641.90 476.24, 1641.09 479.37 C 1640.29 482.51, 1639.94 484.61, 1640.61 487.46 C 1641.29 490.30, 1642.44 491.81, 1644.47 493.61 C 1646.51 495.40, 1648.43 496.22, 1650.80 496.42 C 1653.17 496.63, 1655.20 495.82, 1656.31 494.65 C 1657.42 493.49, 1657.20 491.79, 1656.36 490.60 C 1655.53 489.41, 1653.74 489.18, 1652.13 488.70 C 1650.51 488.23, 1649.32 488.62, 1648.31 488.24 C 1647.29 487.85, 1646.80 487.90, 1647.05 486.77 C 1647.30 485.63, 1648.36 484.76, 1649.56 482.56 C 1650.76 480.36, 1651.77 478.61, 1653.05 475.76 C 1654.33 472.92, 1655.46 471.23, 1655.94 468.33 C 1656.42 465.44, 1656.37 463.66, 1655.44 461.31 C 1654.52 458.96, 1653.65 457.68, 1651.32 456.59 C 1648.99 455.50, 1647.32 455.33, 1643.79 455.87 C 1640.26 456.42, 1638.14 457.56, 1633.67 459.31 C 1629.21 461.06, 1626.43 462.35, 1621.48 464.61 C 1616.53 466.86, 1613.60 468.38, 1608.94 470.59 C 1604.29 472.79, 1601.66 473.90, 1598.20 475.65 C 1594.75 477.39, 1593.11 478.01, 1591.67 479.32 C 1590.24 480.64, 1590.44 481.73, 1591.02 482.22 C 1591.60 482.70, 1592.84 482.78, 1594.57 481.75 C 1596.30 480.72, 1597.54 479.35, 1599.69 477.07 C 1601.83 474.80, 1603.46 473.13, 1605.29 470.36 C 1607.12 467.60, 1608.29 465.89, 1608.82 463.24 C 1609.36 460.59, 1609.13 458.93, 1607.97 457.12 C 1606.81 455.32, 1605.62 454.37, 1603.01 454.22 C 1600.41 454.07, 1598.58 454.90, 1594.94 456.38 C 1591.30 457.87, 1589.13 459.31, 1584.81 461.65 C 1580.49 463.98, 1577.86 465.56, 1573.35 468.05 C 1568.83 470.53, 1566.24 472.01, 1562.24 474.07 C 1558.25 476.12, 1555.89 476.70, 1553.35 478.32 C 1550.81 479.94, 1550.13 481.03, 1549.53 482.16 C 1548.94 483.29, 1549.43 483.98, 1550.36 483.98 C 1551.28 483.97, 1552.42 483.69, 1554.17 482.14 C 1555.93 480.59, 1556.81 478.82, 1559.12 476.21 C 1561.43 473.61, 1563.26 471.89, 1565.72 469.12 C 1568.17 466.35, 1570.15 464.97, 1571.38 462.38 C 1572.62 459.79, 1572.56 457.95, 1571.90 456.19 C 1571.25 454.42, 1570.26 453.48, 1568.11 453.56 C 1565.96 453.63, 1564.50 454.67, 1561.17 456.58 C 1557.83 458.49, 1555.70 460.48, 1551.43 463.12 C 1547.16 465.75, 1544.58 467.29, 1539.80 469.75 C 1535.02 472.22, 1532.35 473.54, 1527.53 475.44 C 1522.71 477.34, 1520.07 478.24, 1515.70 479.25 C 1511.32 480.27, 1509.09 480.50, 1505.65 480.52 C 1502.21 480.55, 1500.75 480.03, 1498.49 479.39 C 1496.23 478.76, 1495.43 478.52, 1494.34 477.35 C 1493.25 476.19, 1493.08 475.48, 1493.03 473.57 C 1492.99 471.66, 1493.08 470.41, 1494.11 467.82 C 1495.14 465.23, 1496.01 463.47, 1498.18 460.60 C 1500.36 457.73, 1502.03 455.97, 1504.99 453.47 C 1507.95 450.96, 1509.92 449.66, 1512.97 448.06 C 1516.03 446.46, 1517.96 446.39, 1520.28 445.46 C 1522.60 444.53, 1523.45 444.06, 1524.59 443.42 C 1525.73 442.78, 1525.93 442.35, 1525.98 442.24 C 1526.02 442.12, 1525.82 442.17, 1524.81 442.86 C 1523.80 443.54, 1523.01 444.11, 1520.94 445.65 C 1518.86 447.19, 1517.61 448.63, 1514.42 450.56 C 1511.24 452.50, 1509.11 453.53, 1505.01 455.32 C 1500.92 457.10, 1498.49 457.98, 1493.95 459.48 C 1489.41 460.98, 1486.89 461.69, 1482.33 462.81 C 1477.77 463.93, 1475.39 464.44, 1471.15 465.09 C 1466.91 465.73, 1464.79 465.96, 1461.14 466.05 C 1457.48 466.13, 1455.75 465.69, 1452.88 465.50 C 1450.01 465.31, 1448.79 465.00, 1446.80 465.11 C 1444.81 465.22, 1444.10 465.55, 1442.93 466.03 C 1441.77 466.52, 1441.52 466.66, 1440.98 467.52 C 1440.45 468.38, 1440.07 469.30, 1440.25 470.35" style="stroke: black; fill: black;"/></svg>